<?xml version="1.0" encoding="utf-8" standalone="no"?>
<!DOCTYPE svg PUBLIC "-//W3C//DTD SVG 1.1//EN"
  "http://www.w3.org/Graphics/SVG/1.1/DTD/svg11.dtd">
<!-- Created with matplotlib (https://matplotlib.org/) -->
<svg height="345.6pt" version="1.1" viewBox="0 0 460.8 345.6" width="460.8pt" xmlns="http://www.w3.org/2000/svg" xmlns:xlink="http://www.w3.org/1999/xlink">
 <metadata>
  <rdf:RDF xmlns:cc="http://creativecommons.org/ns#" xmlns:dc="http://purl.org/dc/elements/1.1/" xmlns:rdf="http://www.w3.org/1999/02/22-rdf-syntax-ns#">
   <cc:Work>
    <dc:type rdf:resource="http://purl.org/dc/dcmitype/StillImage"/>
    <dc:date>2020-10-26T15:35:54.228260</dc:date>
    <dc:format>image/svg+xml</dc:format>
    <dc:creator>
     <cc:Agent>
      <dc:title>Matplotlib v3.3.2, https://matplotlib.org/</dc:title>
     </cc:Agent>
    </dc:creator>
   </cc:Work>
  </rdf:RDF>
 </metadata>
 <defs>
  <style type="text/css">*{stroke-linecap:butt;stroke-linejoin:round;}</style>
 </defs>
 <g id="figure_1">
  <g id="patch_1">
   <path d="M 0 345.6 
L 460.8 345.6 
L 460.8 0 
L 0 0 
z
" style="fill:#ffffff;"/>
  </g>
  <g id="axes_1">
   <g id="patch_2">
    <path d="M 57.6 307.584 
L 414.72 307.584 
L 414.72 41.472 
L 57.6 41.472 
z
" style="fill:#ffffff;"/>
   </g>
   <g id="matplotlib.axis_1">
    <g id="xtick_1">
     <g id="line2d_1">
      <path clip-path="url(#p97097224e1)" d="M 73.832727 307.584 
L 73.832727 41.472 
" style="fill:none;stroke:#b0b0b0;stroke-linecap:square;stroke-width:0.8;"/>
     </g>
     <g id="line2d_2">
      <defs>
       <path d="M 0 0 
L 0 3.5 
" id="m66cd02f0aa" style="stroke:#000000;stroke-width:0.8;"/>
      </defs>
      <g>
       <use style="stroke:#000000;stroke-width:0.8;" x="73.832727" xlink:href="#m66cd02f0aa" y="307.584"/>
      </g>
     </g>
     <g id="text_1">
      <!-- 0 -->
      <g transform="translate(70.651477 322.182437)scale(0.1 -0.1)">
       <defs>
        <path d="M 31.78125 66.40625 
Q 24.171875 66.40625 20.328125 58.90625 
Q 16.5 51.421875 16.5 36.375 
Q 16.5 21.390625 20.328125 13.890625 
Q 24.171875 6.390625 31.78125 6.390625 
Q 39.453125 6.390625 43.28125 13.890625 
Q 47.125 21.390625 47.125 36.375 
Q 47.125 51.421875 43.28125 58.90625 
Q 39.453125 66.40625 31.78125 66.40625 
z
M 31.78125 74.21875 
Q 44.046875 74.21875 50.515625 64.515625 
Q 56.984375 54.828125 56.984375 36.375 
Q 56.984375 17.96875 50.515625 8.265625 
Q 44.046875 -1.421875 31.78125 -1.421875 
Q 19.53125 -1.421875 13.0625 8.265625 
Q 6.59375 17.96875 6.59375 36.375 
Q 6.59375 54.828125 13.0625 64.515625 
Q 19.53125 74.21875 31.78125 74.21875 
z
" id="DejaVuSans-48"/>
       </defs>
       <use xlink:href="#DejaVuSans-48"/>
      </g>
     </g>
    </g>
    <g id="xtick_2">
     <g id="line2d_3">
      <path clip-path="url(#p97097224e1)" d="M 138.763677 307.584 
L 138.763677 41.472 
" style="fill:none;stroke:#b0b0b0;stroke-linecap:square;stroke-width:0.8;"/>
     </g>
     <g id="line2d_4">
      <g>
       <use style="stroke:#000000;stroke-width:0.8;" x="138.763677" xlink:href="#m66cd02f0aa" y="307.584"/>
      </g>
     </g>
     <g id="text_2">
      <!-- 50 -->
      <g transform="translate(132.401177 322.182437)scale(0.1 -0.1)">
       <defs>
        <path d="M 10.796875 72.90625 
L 49.515625 72.90625 
L 49.515625 64.59375 
L 19.828125 64.59375 
L 19.828125 46.734375 
Q 21.96875 47.46875 24.109375 47.828125 
Q 26.265625 48.1875 28.421875 48.1875 
Q 40.625 48.1875 47.75 41.5 
Q 54.890625 34.8125 54.890625 23.390625 
Q 54.890625 11.625 47.5625 5.09375 
Q 40.234375 -1.421875 26.90625 -1.421875 
Q 22.3125 -1.421875 17.546875 -0.640625 
Q 12.796875 0.140625 7.71875 1.703125 
L 7.71875 11.625 
Q 12.109375 9.234375 16.796875 8.0625 
Q 21.484375 6.890625 26.703125 6.890625 
Q 35.15625 6.890625 40.078125 11.328125 
Q 45.015625 15.765625 45.015625 23.390625 
Q 45.015625 31 40.078125 35.4375 
Q 35.15625 39.890625 26.703125 39.890625 
Q 22.75 39.890625 18.8125 39.015625 
Q 14.890625 38.140625 10.796875 36.28125 
z
" id="DejaVuSans-53"/>
       </defs>
       <use xlink:href="#DejaVuSans-53"/>
       <use x="63.623047" xlink:href="#DejaVuSans-48"/>
      </g>
     </g>
    </g>
    <g id="xtick_3">
     <g id="line2d_5">
      <path clip-path="url(#p97097224e1)" d="M 203.694627 307.584 
L 203.694627 41.472 
" style="fill:none;stroke:#b0b0b0;stroke-linecap:square;stroke-width:0.8;"/>
     </g>
     <g id="line2d_6">
      <g>
       <use style="stroke:#000000;stroke-width:0.8;" x="203.694627" xlink:href="#m66cd02f0aa" y="307.584"/>
      </g>
     </g>
     <g id="text_3">
      <!-- 100 -->
      <g transform="translate(194.150877 322.182437)scale(0.1 -0.1)">
       <defs>
        <path d="M 12.40625 8.296875 
L 28.515625 8.296875 
L 28.515625 63.921875 
L 10.984375 60.40625 
L 10.984375 69.390625 
L 28.421875 72.90625 
L 38.28125 72.90625 
L 38.28125 8.296875 
L 54.390625 8.296875 
L 54.390625 0 
L 12.40625 0 
z
" id="DejaVuSans-49"/>
       </defs>
       <use xlink:href="#DejaVuSans-49"/>
       <use x="63.623047" xlink:href="#DejaVuSans-48"/>
       <use x="127.246094" xlink:href="#DejaVuSans-48"/>
      </g>
     </g>
    </g>
    <g id="xtick_4">
     <g id="line2d_7">
      <path clip-path="url(#p97097224e1)" d="M 268.625578 307.584 
L 268.625578 41.472 
" style="fill:none;stroke:#b0b0b0;stroke-linecap:square;stroke-width:0.8;"/>
     </g>
     <g id="line2d_8">
      <g>
       <use style="stroke:#000000;stroke-width:0.8;" x="268.625578" xlink:href="#m66cd02f0aa" y="307.584"/>
      </g>
     </g>
     <g id="text_4">
      <!-- 150 -->
      <g transform="translate(259.081828 322.182437)scale(0.1 -0.1)">
       <use xlink:href="#DejaVuSans-49"/>
       <use x="63.623047" xlink:href="#DejaVuSans-53"/>
       <use x="127.246094" xlink:href="#DejaVuSans-48"/>
      </g>
     </g>
    </g>
    <g id="xtick_5">
     <g id="line2d_9">
      <path clip-path="url(#p97097224e1)" d="M 333.556528 307.584 
L 333.556528 41.472 
" style="fill:none;stroke:#b0b0b0;stroke-linecap:square;stroke-width:0.8;"/>
     </g>
     <g id="line2d_10">
      <g>
       <use style="stroke:#000000;stroke-width:0.8;" x="333.556528" xlink:href="#m66cd02f0aa" y="307.584"/>
      </g>
     </g>
     <g id="text_5">
      <!-- 200 -->
      <g transform="translate(324.012778 322.182437)scale(0.1 -0.1)">
       <defs>
        <path d="M 19.1875 8.296875 
L 53.609375 8.296875 
L 53.609375 0 
L 7.328125 0 
L 7.328125 8.296875 
Q 12.9375 14.109375 22.625 23.890625 
Q 32.328125 33.6875 34.8125 36.53125 
Q 39.546875 41.84375 41.421875 45.53125 
Q 43.3125 49.21875 43.3125 52.78125 
Q 43.3125 58.59375 39.234375 62.25 
Q 35.15625 65.921875 28.609375 65.921875 
Q 23.96875 65.921875 18.8125 64.3125 
Q 13.671875 62.703125 7.8125 59.421875 
L 7.8125 69.390625 
Q 13.765625 71.78125 18.9375 73 
Q 24.125 74.21875 28.421875 74.21875 
Q 39.75 74.21875 46.484375 68.546875 
Q 53.21875 62.890625 53.21875 53.421875 
Q 53.21875 48.921875 51.53125 44.890625 
Q 49.859375 40.875 45.40625 35.40625 
Q 44.1875 33.984375 37.640625 27.21875 
Q 31.109375 20.453125 19.1875 8.296875 
z
" id="DejaVuSans-50"/>
       </defs>
       <use xlink:href="#DejaVuSans-50"/>
       <use x="63.623047" xlink:href="#DejaVuSans-48"/>
       <use x="127.246094" xlink:href="#DejaVuSans-48"/>
      </g>
     </g>
    </g>
    <g id="xtick_6">
     <g id="line2d_11">
      <path clip-path="url(#p97097224e1)" d="M 398.487478 307.584 
L 398.487478 41.472 
" style="fill:none;stroke:#b0b0b0;stroke-linecap:square;stroke-width:0.8;"/>
     </g>
     <g id="line2d_12">
      <g>
       <use style="stroke:#000000;stroke-width:0.8;" x="398.487478" xlink:href="#m66cd02f0aa" y="307.584"/>
      </g>
     </g>
     <g id="text_6">
      <!-- 250 -->
      <g transform="translate(388.943728 322.182437)scale(0.1 -0.1)">
       <use xlink:href="#DejaVuSans-50"/>
       <use x="63.623047" xlink:href="#DejaVuSans-53"/>
       <use x="127.246094" xlink:href="#DejaVuSans-48"/>
      </g>
     </g>
    </g>
    <g id="text_7">
     <!-- x Position (m) -->
     <g transform="translate(201.786563 335.860562)scale(0.1 -0.1)">
      <defs>
       <path d="M 54.890625 54.6875 
L 35.109375 28.078125 
L 55.90625 0 
L 45.3125 0 
L 29.390625 21.484375 
L 13.484375 0 
L 2.875 0 
L 24.125 28.609375 
L 4.6875 54.6875 
L 15.28125 54.6875 
L 29.78125 35.203125 
L 44.28125 54.6875 
z
" id="DejaVuSans-120"/>
       <path id="DejaVuSans-32"/>
       <path d="M 19.671875 64.796875 
L 19.671875 37.40625 
L 32.078125 37.40625 
Q 38.96875 37.40625 42.71875 40.96875 
Q 46.484375 44.53125 46.484375 51.125 
Q 46.484375 57.671875 42.71875 61.234375 
Q 38.96875 64.796875 32.078125 64.796875 
z
M 9.8125 72.90625 
L 32.078125 72.90625 
Q 44.34375 72.90625 50.609375 67.359375 
Q 56.890625 61.8125 56.890625 51.125 
Q 56.890625 40.328125 50.609375 34.8125 
Q 44.34375 29.296875 32.078125 29.296875 
L 19.671875 29.296875 
L 19.671875 0 
L 9.8125 0 
z
" id="DejaVuSans-80"/>
       <path d="M 30.609375 48.390625 
Q 23.390625 48.390625 19.1875 42.75 
Q 14.984375 37.109375 14.984375 27.296875 
Q 14.984375 17.484375 19.15625 11.84375 
Q 23.34375 6.203125 30.609375 6.203125 
Q 37.796875 6.203125 41.984375 11.859375 
Q 46.1875 17.53125 46.1875 27.296875 
Q 46.1875 37.015625 41.984375 42.703125 
Q 37.796875 48.390625 30.609375 48.390625 
z
M 30.609375 56 
Q 42.328125 56 49.015625 48.375 
Q 55.71875 40.765625 55.71875 27.296875 
Q 55.71875 13.875 49.015625 6.21875 
Q 42.328125 -1.421875 30.609375 -1.421875 
Q 18.84375 -1.421875 12.171875 6.21875 
Q 5.515625 13.875 5.515625 27.296875 
Q 5.515625 40.765625 12.171875 48.375 
Q 18.84375 56 30.609375 56 
z
" id="DejaVuSans-111"/>
       <path d="M 44.28125 53.078125 
L 44.28125 44.578125 
Q 40.484375 46.53125 36.375 47.5 
Q 32.28125 48.484375 27.875 48.484375 
Q 21.1875 48.484375 17.84375 46.4375 
Q 14.5 44.390625 14.5 40.28125 
Q 14.5 37.15625 16.890625 35.375 
Q 19.28125 33.59375 26.515625 31.984375 
L 29.59375 31.296875 
Q 39.15625 29.25 43.1875 25.515625 
Q 47.21875 21.78125 47.21875 15.09375 
Q 47.21875 7.46875 41.1875 3.015625 
Q 35.15625 -1.421875 24.609375 -1.421875 
Q 20.21875 -1.421875 15.453125 -0.5625 
Q 10.6875 0.296875 5.421875 2 
L 5.421875 11.28125 
Q 10.40625 8.6875 15.234375 7.390625 
Q 20.0625 6.109375 24.8125 6.109375 
Q 31.15625 6.109375 34.5625 8.28125 
Q 37.984375 10.453125 37.984375 14.40625 
Q 37.984375 18.0625 35.515625 20.015625 
Q 33.0625 21.96875 24.703125 23.78125 
L 21.578125 24.515625 
Q 13.234375 26.265625 9.515625 29.90625 
Q 5.8125 33.546875 5.8125 39.890625 
Q 5.8125 47.609375 11.28125 51.796875 
Q 16.75 56 26.8125 56 
Q 31.78125 56 36.171875 55.265625 
Q 40.578125 54.546875 44.28125 53.078125 
z
" id="DejaVuSans-115"/>
       <path d="M 9.421875 54.6875 
L 18.40625 54.6875 
L 18.40625 0 
L 9.421875 0 
z
M 9.421875 75.984375 
L 18.40625 75.984375 
L 18.40625 64.59375 
L 9.421875 64.59375 
z
" id="DejaVuSans-105"/>
       <path d="M 18.3125 70.21875 
L 18.3125 54.6875 
L 36.8125 54.6875 
L 36.8125 47.703125 
L 18.3125 47.703125 
L 18.3125 18.015625 
Q 18.3125 11.328125 20.140625 9.421875 
Q 21.96875 7.515625 27.59375 7.515625 
L 36.8125 7.515625 
L 36.8125 0 
L 27.59375 0 
Q 17.1875 0 13.234375 3.875 
Q 9.28125 7.765625 9.28125 18.015625 
L 9.28125 47.703125 
L 2.6875 47.703125 
L 2.6875 54.6875 
L 9.28125 54.6875 
L 9.28125 70.21875 
z
" id="DejaVuSans-116"/>
       <path d="M 54.890625 33.015625 
L 54.890625 0 
L 45.90625 0 
L 45.90625 32.71875 
Q 45.90625 40.484375 42.875 44.328125 
Q 39.84375 48.1875 33.796875 48.1875 
Q 26.515625 48.1875 22.3125 43.546875 
Q 18.109375 38.921875 18.109375 30.90625 
L 18.109375 0 
L 9.078125 0 
L 9.078125 54.6875 
L 18.109375 54.6875 
L 18.109375 46.1875 
Q 21.34375 51.125 25.703125 53.5625 
Q 30.078125 56 35.796875 56 
Q 45.21875 56 50.046875 50.171875 
Q 54.890625 44.34375 54.890625 33.015625 
z
" id="DejaVuSans-110"/>
       <path d="M 31 75.875 
Q 24.46875 64.65625 21.28125 53.65625 
Q 18.109375 42.671875 18.109375 31.390625 
Q 18.109375 20.125 21.3125 9.0625 
Q 24.515625 -2 31 -13.1875 
L 23.1875 -13.1875 
Q 15.875 -1.703125 12.234375 9.375 
Q 8.59375 20.453125 8.59375 31.390625 
Q 8.59375 42.28125 12.203125 53.3125 
Q 15.828125 64.359375 23.1875 75.875 
z
" id="DejaVuSans-40"/>
       <path d="M 52 44.1875 
Q 55.375 50.25 60.0625 53.125 
Q 64.75 56 71.09375 56 
Q 79.640625 56 84.28125 50.015625 
Q 88.921875 44.046875 88.921875 33.015625 
L 88.921875 0 
L 79.890625 0 
L 79.890625 32.71875 
Q 79.890625 40.578125 77.09375 44.375 
Q 74.3125 48.1875 68.609375 48.1875 
Q 61.625 48.1875 57.5625 43.546875 
Q 53.515625 38.921875 53.515625 30.90625 
L 53.515625 0 
L 44.484375 0 
L 44.484375 32.71875 
Q 44.484375 40.625 41.703125 44.40625 
Q 38.921875 48.1875 33.109375 48.1875 
Q 26.21875 48.1875 22.15625 43.53125 
Q 18.109375 38.875 18.109375 30.90625 
L 18.109375 0 
L 9.078125 0 
L 9.078125 54.6875 
L 18.109375 54.6875 
L 18.109375 46.1875 
Q 21.1875 51.21875 25.484375 53.609375 
Q 29.78125 56 35.6875 56 
Q 41.65625 56 45.828125 52.96875 
Q 50 49.953125 52 44.1875 
z
" id="DejaVuSans-109"/>
       <path d="M 8.015625 75.875 
L 15.828125 75.875 
Q 23.140625 64.359375 26.78125 53.3125 
Q 30.421875 42.28125 30.421875 31.390625 
Q 30.421875 20.453125 26.78125 9.375 
Q 23.140625 -1.703125 15.828125 -13.1875 
L 8.015625 -13.1875 
Q 14.5 -2 17.703125 9.0625 
Q 20.90625 20.125 20.90625 31.390625 
Q 20.90625 42.671875 17.703125 53.65625 
Q 14.5 64.65625 8.015625 75.875 
z
" id="DejaVuSans-41"/>
      </defs>
      <use xlink:href="#DejaVuSans-120"/>
      <use x="59.179688" xlink:href="#DejaVuSans-32"/>
      <use x="90.966797" xlink:href="#DejaVuSans-80"/>
      <use x="147.644531" xlink:href="#DejaVuSans-111"/>
      <use x="208.826172" xlink:href="#DejaVuSans-115"/>
      <use x="260.925781" xlink:href="#DejaVuSans-105"/>
      <use x="288.708984" xlink:href="#DejaVuSans-116"/>
      <use x="327.917969" xlink:href="#DejaVuSans-105"/>
      <use x="355.701172" xlink:href="#DejaVuSans-111"/>
      <use x="416.882812" xlink:href="#DejaVuSans-110"/>
      <use x="480.261719" xlink:href="#DejaVuSans-32"/>
      <use x="512.048828" xlink:href="#DejaVuSans-40"/>
      <use x="551.0625" xlink:href="#DejaVuSans-109"/>
      <use x="648.474609" xlink:href="#DejaVuSans-41"/>
     </g>
    </g>
   </g>
   <g id="matplotlib.axis_2">
    <g id="ytick_1">
     <g id="line2d_13">
      <path clip-path="url(#p97097224e1)" d="M 57.6 275.961678 
L 414.72 275.961678 
" style="fill:none;stroke:#b0b0b0;stroke-linecap:square;stroke-width:0.8;"/>
     </g>
     <g id="line2d_14">
      <defs>
       <path d="M 0 0 
L -3.5 0 
" id="mefc227d5c3" style="stroke:#000000;stroke-width:0.8;"/>
      </defs>
      <g>
       <use style="stroke:#000000;stroke-width:0.8;" x="57.6" xlink:href="#mefc227d5c3" y="275.961678"/>
      </g>
     </g>
     <g id="text_8">
      <!-- 0.10 -->
      <g transform="translate(28.334375 279.760897)scale(0.1 -0.1)">
       <defs>
        <path d="M 10.6875 12.40625 
L 21 12.40625 
L 21 0 
L 10.6875 0 
z
" id="DejaVuSans-46"/>
       </defs>
       <use xlink:href="#DejaVuSans-48"/>
       <use x="63.623047" xlink:href="#DejaVuSans-46"/>
       <use x="95.410156" xlink:href="#DejaVuSans-49"/>
       <use x="159.033203" xlink:href="#DejaVuSans-48"/>
      </g>
     </g>
    </g>
    <g id="ytick_2">
     <g id="line2d_15">
      <path clip-path="url(#p97097224e1)" d="M 57.6 220.363258 
L 414.72 220.363258 
" style="fill:none;stroke:#b0b0b0;stroke-linecap:square;stroke-width:0.8;"/>
     </g>
     <g id="line2d_16">
      <g>
       <use style="stroke:#000000;stroke-width:0.8;" x="57.6" xlink:href="#mefc227d5c3" y="220.363258"/>
      </g>
     </g>
     <g id="text_9">
      <!-- 0.15 -->
      <g transform="translate(28.334375 224.162477)scale(0.1 -0.1)">
       <use xlink:href="#DejaVuSans-48"/>
       <use x="63.623047" xlink:href="#DejaVuSans-46"/>
       <use x="95.410156" xlink:href="#DejaVuSans-49"/>
       <use x="159.033203" xlink:href="#DejaVuSans-53"/>
      </g>
     </g>
    </g>
    <g id="ytick_3">
     <g id="line2d_17">
      <path clip-path="url(#p97097224e1)" d="M 57.6 164.764839 
L 414.72 164.764839 
" style="fill:none;stroke:#b0b0b0;stroke-linecap:square;stroke-width:0.8;"/>
     </g>
     <g id="line2d_18">
      <g>
       <use style="stroke:#000000;stroke-width:0.8;" x="57.6" xlink:href="#mefc227d5c3" y="164.764839"/>
      </g>
     </g>
     <g id="text_10">
      <!-- 0.20 -->
      <g transform="translate(28.334375 168.564058)scale(0.1 -0.1)">
       <use xlink:href="#DejaVuSans-48"/>
       <use x="63.623047" xlink:href="#DejaVuSans-46"/>
       <use x="95.410156" xlink:href="#DejaVuSans-50"/>
       <use x="159.033203" xlink:href="#DejaVuSans-48"/>
      </g>
     </g>
    </g>
    <g id="ytick_4">
     <g id="line2d_19">
      <path clip-path="url(#p97097224e1)" d="M 57.6 109.166419 
L 414.72 109.166419 
" style="fill:none;stroke:#b0b0b0;stroke-linecap:square;stroke-width:0.8;"/>
     </g>
     <g id="line2d_20">
      <g>
       <use style="stroke:#000000;stroke-width:0.8;" x="57.6" xlink:href="#mefc227d5c3" y="109.166419"/>
      </g>
     </g>
     <g id="text_11">
      <!-- 0.25 -->
      <g transform="translate(28.334375 112.965638)scale(0.1 -0.1)">
       <use xlink:href="#DejaVuSans-48"/>
       <use x="63.623047" xlink:href="#DejaVuSans-46"/>
       <use x="95.410156" xlink:href="#DejaVuSans-50"/>
       <use x="159.033203" xlink:href="#DejaVuSans-53"/>
      </g>
     </g>
    </g>
    <g id="ytick_5">
     <g id="line2d_21">
      <path clip-path="url(#p97097224e1)" d="M 57.6 53.568 
L 414.72 53.568 
" style="fill:none;stroke:#b0b0b0;stroke-linecap:square;stroke-width:0.8;"/>
     </g>
     <g id="line2d_22">
      <g>
       <use style="stroke:#000000;stroke-width:0.8;" x="57.6" xlink:href="#mefc227d5c3" y="53.568"/>
      </g>
     </g>
     <g id="text_12">
      <!-- 0.30 -->
      <g transform="translate(28.334375 57.367219)scale(0.1 -0.1)">
       <defs>
        <path d="M 40.578125 39.3125 
Q 47.65625 37.796875 51.625 33 
Q 55.609375 28.21875 55.609375 21.1875 
Q 55.609375 10.40625 48.1875 4.484375 
Q 40.765625 -1.421875 27.09375 -1.421875 
Q 22.515625 -1.421875 17.65625 -0.515625 
Q 12.796875 0.390625 7.625 2.203125 
L 7.625 11.71875 
Q 11.71875 9.328125 16.59375 8.109375 
Q 21.484375 6.890625 26.8125 6.890625 
Q 36.078125 6.890625 40.9375 10.546875 
Q 45.796875 14.203125 45.796875 21.1875 
Q 45.796875 27.640625 41.28125 31.265625 
Q 36.765625 34.90625 28.71875 34.90625 
L 20.21875 34.90625 
L 20.21875 43.015625 
L 29.109375 43.015625 
Q 36.375 43.015625 40.234375 45.921875 
Q 44.09375 48.828125 44.09375 54.296875 
Q 44.09375 59.90625 40.109375 62.90625 
Q 36.140625 65.921875 28.71875 65.921875 
Q 24.65625 65.921875 20.015625 65.03125 
Q 15.375 64.15625 9.8125 62.3125 
L 9.8125 71.09375 
Q 15.4375 72.65625 20.34375 73.4375 
Q 25.25 74.21875 29.59375 74.21875 
Q 40.828125 74.21875 47.359375 69.109375 
Q 53.90625 64.015625 53.90625 55.328125 
Q 53.90625 49.265625 50.4375 45.09375 
Q 46.96875 40.921875 40.578125 39.3125 
z
" id="DejaVuSans-51"/>
       </defs>
       <use xlink:href="#DejaVuSans-48"/>
       <use x="63.623047" xlink:href="#DejaVuSans-46"/>
       <use x="95.410156" xlink:href="#DejaVuSans-51"/>
       <use x="159.033203" xlink:href="#DejaVuSans-48"/>
      </g>
     </g>
    </g>
    <g id="text_13">
     <!-- y Position (m) -->
     <g transform="translate(22.254687 208.901437)rotate(-90)scale(0.1 -0.1)">
      <defs>
       <path d="M 32.171875 -5.078125 
Q 28.375 -14.84375 24.75 -17.8125 
Q 21.140625 -20.796875 15.09375 -20.796875 
L 7.90625 -20.796875 
L 7.90625 -13.28125 
L 13.1875 -13.28125 
Q 16.890625 -13.28125 18.9375 -11.515625 
Q 21 -9.765625 23.484375 -3.21875 
L 25.09375 0.875 
L 2.984375 54.6875 
L 12.5 54.6875 
L 29.59375 11.921875 
L 46.6875 54.6875 
L 56.203125 54.6875 
z
" id="DejaVuSans-121"/>
      </defs>
      <use xlink:href="#DejaVuSans-121"/>
      <use x="59.179688" xlink:href="#DejaVuSans-32"/>
      <use x="90.966797" xlink:href="#DejaVuSans-80"/>
      <use x="147.644531" xlink:href="#DejaVuSans-111"/>
      <use x="208.826172" xlink:href="#DejaVuSans-115"/>
      <use x="260.925781" xlink:href="#DejaVuSans-105"/>
      <use x="288.708984" xlink:href="#DejaVuSans-116"/>
      <use x="327.917969" xlink:href="#DejaVuSans-105"/>
      <use x="355.701172" xlink:href="#DejaVuSans-111"/>
      <use x="416.882812" xlink:href="#DejaVuSans-110"/>
      <use x="480.261719" xlink:href="#DejaVuSans-32"/>
      <use x="512.048828" xlink:href="#DejaVuSans-40"/>
      <use x="551.0625" xlink:href="#DejaVuSans-109"/>
      <use x="648.474609" xlink:href="#DejaVuSans-41"/>
     </g>
    </g>
   </g>
   <g id="line2d_23">
    <path clip-path="url(#p97097224e1)" d="M 73.832727 53.568 
L 74.157382 53.757424 
L 74.482036 54.323413 
L 74.969015 55.866677 
L 75.455989 58.223035 
L 76.105278 62.582747 
L 76.91687 69.881262 
L 77.890746 81.116172 
L 79.026882 97.185775 
L 80.487551 121.537119 
L 82.597299 161.15875 
L 86.005352 225.234883 
L 87.628341 251.227078 
L 88.926805 268.376199 
L 89.900694 278.703793 
L 90.874614 286.650054 
L 91.686232 291.364335 
L 92.335535 293.859389 
L 92.822515 294.98251 
L 93.147169 295.376251 
L 93.471824 295.488 
L 93.796479 295.320327 
L 94.121133 294.876536 
L 94.608113 293.70211 
L 95.095091 291.93212 
L 95.744389 288.680514 
L 96.556001 283.263351 
L 97.529917 274.95247 
L 98.666124 263.094256 
L 100.12692 245.160669 
L 102.236902 216.038411 
L 105.645334 169.05693 
L 107.106141 151.792532 
L 108.404673 138.942988 
L 109.540917 130.00563 
L 110.514857 124.235371 
L 111.326484 120.828778 
L 111.975791 119.040833 
L 112.462772 118.248991 
L 112.949754 117.92548 
L 113.274408 117.967553 
L 113.599063 118.213321 
L 114.086044 118.957757 
L 114.573025 120.142783 
L 115.222329 122.383734 
L 116.033953 126.190162 
L 117.007893 132.108084 
L 118.144141 140.633577 
L 119.605008 153.628332 
L 121.715118 174.891713 
L 125.28607 211.032466 
L 126.746942 223.660213 
L 128.045515 233.041722 
L 129.181781 239.551792 
L 130.155733 243.741245 
L 130.967364 246.202153 
L 131.616672 247.482552 
L 132.103654 248.039839 
L 132.590636 248.253569 
L 132.915291 248.207049 
L 133.402273 247.857919 
L 133.889254 247.180157 
L 134.538562 245.781333 
L 135.187867 243.841366 
L 135.999496 240.704548 
L 136.973444 235.994003 
L 138.10971 229.379175 
L 139.57061 219.507326 
L 142.005427 201.192196 
L 144.764889 180.78773 
L 146.388118 170.443065 
L 147.686712 163.594019 
L 148.82299 158.852452 
L 149.796948 155.811196 
L 150.608582 154.033965 
L 151.257891 153.117638 
L 151.744873 152.726165 
L 152.231855 152.586712 
L 152.718837 152.696288 
L 153.205819 153.050428 
L 153.855128 153.892676 
L 154.504436 155.14138 
L 155.316069 157.240367 
L 156.290026 160.480566 
L 157.426304 165.124652 
L 158.887227 172.173994 
L 160.997441 183.662626 
L 164.406246 202.279047 
L 166.029496 209.845471 
L 167.328102 214.845376 
L 168.464386 218.298561 
L 169.438347 220.505974 
L 170.249982 221.789089 
L 170.899291 222.444421 
L 171.548601 222.769166 
L 172.035583 222.797566 
L 172.522565 222.644369 
L 173.171874 222.164173 
L 173.821183 221.379439 
L 174.632818 219.992864 
L 175.606779 217.780785 
L 176.743064 214.535975 
L 178.041673 210.114765 
L 179.827256 203.186212 
L 184.534699 184.45137 
L 185.995634 179.690689 
L 187.13192 176.62508 
L 188.105882 174.510343 
L 189.079844 172.908391 
L 189.89148 171.982289 
L 190.540789 171.513943 
L 191.190099 171.288192 
L 191.839408 171.302556 
L 192.488718 171.552012 
L 193.138027 172.029099 
L 193.949663 172.930471 
L 194.923626 174.42743 
L 196.059914 176.682431 
L 197.358528 179.814712 
L 199.14412 184.80635 
L 204.500893 200.33223 
L 205.961834 203.671767 
L 207.098123 205.777552 
L 208.072085 207.193837 
L 209.046049 208.226305 
L 209.857686 208.783577 
L 210.669322 209.062465 
L 211.480959 209.06531 
L 212.292596 208.799042 
L 213.104233 208.274945 
L 214.078196 207.327558 
L 215.052159 206.064635 
L 216.350776 203.959956 
L 217.811719 201.14433 
L 220.084295 196.221114 
L 223.330832 189.245629 
L 224.954102 186.285526 
L 226.252719 184.341019 
L 227.38901 183.007843 
L 228.362973 182.164539 
L 229.336937 181.610597 
L 230.148574 181.373579 
L 230.960211 181.339676 
L 231.771848 181.504327 
L 232.745812 181.952813 
L 233.719776 182.656694 
L 234.856067 183.767403 
L 236.154685 185.359756 
L 237.777956 187.713386 
L 240.862171 192.689366 
L 243.297077 196.411955 
L 244.920349 198.497661 
L 246.218967 199.837814 
L 247.355258 200.731039 
L 248.49155 201.342108 
L 249.465514 201.633384 
L 250.439478 201.709243 
L 251.413443 201.57437 
L 252.549734 201.163788 
L 253.686025 200.502768 
L 254.984644 199.480057 
L 256.607917 197.882777 
L 258.880498 195.276512 
L 262.776351 190.773448 
L 264.561951 189.080761 
L 266.022897 187.998229 
L 267.321516 187.305668 
L 268.457807 186.924374 
L 269.594099 186.758413 
L 270.730391 186.805643 
L 271.866682 187.057012 
L 273.165301 187.5742 
L 274.626247 188.410323 
L 276.411848 189.716126 
L 279.171412 192.075389 
L 282.417957 194.804836 
L 284.203558 196.042262 
L 285.826831 196.905224 
L 287.287778 197.42956 
L 288.586397 197.679662 
L 289.885016 197.723592 
L 291.345962 197.534871 
L 292.806908 197.11508 
L 294.430182 196.418099 
L 296.540437 195.243958 
L 303.845167 190.89638 
L 305.630768 190.215886 
L 307.254042 189.827522 
L 308.877316 189.67409 
L 310.50059 189.754022 
L 312.123863 190.050377 
L 314.071792 190.648053 
L 316.506702 191.659114 
L 323.162123 194.59075 
L 325.272379 195.195857 
L 327.220308 195.513114 
L 329.005909 195.585336 
L 330.953837 195.432527 
L 333.064093 195.027829 
L 335.661331 194.2783 
L 343.615372 191.777005 
L 345.887955 191.389909 
L 347.998211 191.24793 
L 350.108467 191.318095 
L 352.543377 191.633648 
L 355.46527 192.253525 
L 363.419311 194.07342 
L 366.016549 194.366882 
L 368.45146 194.428221 
L 371.048698 194.272907 
L 374.132918 193.854174 
L 384.684197 192.199963 
L 387.60609 192.093093 
L 390.69031 192.212812 
L 394.42384 192.603108 
L 398.482024 193.152249 
L 398.482024 193.152249 
" style="fill:none;stroke:#1f77b4;stroke-linecap:square;stroke-width:1.5;"/>
   </g>
   <g id="line2d_24">
    <path clip-path="url(#p97097224e1)" d="M 73.832727 53.568 
L 74.157382 53.756909 
L 74.482036 54.313694 
L 74.969015 55.793452 
L 75.618315 58.859555 
L 76.429927 64.218646 
L 77.403843 72.483109 
L 78.702369 85.799763 
L 80.650116 108.575702 
L 84.220979 150.683799 
L 86.006453 168.891963 
L 87.467325 181.566974 
L 88.765897 190.979063 
L 89.902161 197.75394 
L 91.038435 203.194361 
L 92.01239 206.844249 
L 92.986348 209.619184 
L 93.797983 211.312971 
L 94.609618 212.491613 
L 95.258928 213.095254 
L 95.908237 213.424263 
L 96.557546 213.50385 
L 97.206856 213.359227 
L 98.018493 212.901117 
L 98.830129 212.179201 
L 99.804092 211.028925 
L 101.102709 209.13454 
L 103.050634 205.837694 
L 107.10881 198.861672 
L 108.894409 196.257869 
L 110.517681 194.281291 
L 111.978626 192.84741 
L 113.439572 191.740498 
L 114.738191 191.017877 
L 116.199137 190.473445 
L 117.660084 190.178855 
L 119.283357 190.095556 
L 121.068958 190.234401 
L 123.341542 190.647861 
L 127.399726 191.665957 
L 131.620237 192.639763 
L 134.866785 193.151516 
L 138.113332 193.432002 
L 141.846862 193.52091 
L 147.203665 193.396953 
L 160.027528 193.038628 
L 170.903462 193.043411 
L 198.499116 193.085435 
L 368.780533 193.083421 
L 398.486442 193.083421 
L 398.486442 193.083421 
" style="fill:none;stroke:#ff7f0e;stroke-linecap:square;stroke-width:1.5;"/>
   </g>
   <g id="line2d_25">
    <path clip-path="url(#p97097224e1)" d="M 73.832727 53.568 
L 74.157382 53.756265 
L 74.482036 54.301671 
L 74.969015 55.70534 
L 75.618317 58.485234 
L 76.429936 63.082414 
L 77.56619 70.939135 
L 79.514036 86.289668 
L 82.922767 113.089598 
L 84.870632 126.583783 
L 86.656188 137.411307 
L 88.279431 145.965428 
L 89.902682 153.360951 
L 91.525939 159.699565 
L 93.1492 165.096256 
L 94.772465 169.667247 
L 96.395733 173.523128 
L 98.019002 176.765284 
L 99.642273 179.48438 
L 101.265544 181.76009 
L 102.888816 183.661542 
L 104.674416 185.391514 
L 106.460017 186.807296 
L 108.407945 188.058824 
L 110.5182 189.136476 
L 112.790783 190.041301 
L 115.388021 190.825209 
L 118.309914 191.468999 
L 121.881116 192.012587 
L 126.263955 192.436648 
L 131.945413 192.7471 
L 140.224109 192.953767 
L 154.833573 193.059316 
L 203.85644 193.083336 
L 398.486963 193.083421 
L 398.486963 193.083421 
" style="fill:none;stroke:#2ca02c;stroke-linecap:square;stroke-width:1.5;"/>
   </g>
   <g id="line2d_26">
    <path clip-path="url(#p97097224e1)" d="M 73.832727 53.568 
L 74.157382 53.754333 
L 74.482036 54.266432 
L 74.969016 55.462627 
L 75.780647 58.124343 
L 77.56623 65.012838 
L 80.975071 78.100025 
L 83.734613 87.794517 
L 86.494159 96.675641 
L 89.253708 104.807933 
L 92.013259 112.254262 
L 94.772813 119.072469 
L 97.532369 125.315539 
L 100.291926 131.031984 
L 103.051485 136.266228 
L 105.973372 141.327934 
L 108.895259 145.938704 
L 111.817148 150.138712 
L 114.739037 153.964551 
L 117.823255 157.633797 
L 120.907472 160.958877 
L 124.154018 164.122591 
L 127.400563 166.974733 
L 130.809437 169.667687 
L 134.218311 172.082878 
L 137.789512 174.346339 
L 141.523041 176.452278 
L 145.418897 178.397846 
L 149.639408 180.249564 
L 154.022247 181.925786 
L 158.72974 183.483127 
L 163.761889 184.908298 
L 169.118692 186.193703 
L 174.962477 187.366599 
L 181.455572 188.437169 
L 188.597977 189.38475 
L 196.714345 190.229245 
L 205.967006 190.95941 
L 216.680612 191.574831 
L 229.504475 192.081765 
L 245.574885 192.483851 
L 266.839771 192.779389 
L 298.006627 192.971046 
L 355.308191 193.065392 
L 398.487273 193.07888 
L 398.487273 193.07888 
" style="fill:none;stroke:#d62728;stroke-linecap:square;stroke-width:1.5;"/>
   </g>
   <g id="patch_3">
    <path d="M 57.6 307.584 
L 57.6 41.472 
" style="fill:none;stroke:#000000;stroke-linecap:square;stroke-linejoin:miter;stroke-width:0.8;"/>
   </g>
   <g id="patch_4">
    <path d="M 414.72 307.584 
L 414.72 41.472 
" style="fill:none;stroke:#000000;stroke-linecap:square;stroke-linejoin:miter;stroke-width:0.8;"/>
   </g>
   <g id="patch_5">
    <path d="M 57.6 307.584 
L 414.72 307.584 
" style="fill:none;stroke:#000000;stroke-linecap:square;stroke-linejoin:miter;stroke-width:0.8;"/>
   </g>
   <g id="patch_6">
    <path d="M 57.6 41.472 
L 414.72 41.472 
" style="fill:none;stroke:#000000;stroke-linecap:square;stroke-linejoin:miter;stroke-width:0.8;"/>
   </g>
   <g id="legend_1">
    <g id="patch_7">
     <path d="M 327.32 108.1845 
L 407.72 108.1845 
Q 409.72 108.1845 409.72 106.1845 
L 409.72 48.472 
Q 409.72 46.472 407.72 46.472 
L 327.32 46.472 
Q 325.32 46.472 325.32 48.472 
L 325.32 106.1845 
Q 325.32 108.1845 327.32 108.1845 
z
" style="fill:#ffffff;opacity:0.8;stroke:#cccccc;stroke-linejoin:miter;"/>
    </g>
    <g id="line2d_27">
     <path d="M 329.32 54.570438 
L 349.32 54.570438 
" style="fill:none;stroke:#1f77b4;stroke-linecap:square;stroke-width:1.5;"/>
    </g>
    <g id="line2d_28"/>
    <g id="text_14">
     <!-- K$_d$ = 0.02 -->
     <g transform="translate(357.32 58.070438)scale(0.1 -0.1)">
      <defs>
       <path d="M 9.8125 72.90625 
L 19.671875 72.90625 
L 19.671875 42.09375 
L 52.390625 72.90625 
L 65.09375 72.90625 
L 28.90625 38.921875 
L 67.671875 0 
L 54.6875 0 
L 19.671875 35.109375 
L 19.671875 0 
L 9.8125 0 
z
" id="DejaVuSans-75"/>
       <path d="M 41.796875 8.203125 
Q 38.1875 3.46875 33.25 1.015625 
Q 28.328125 -1.421875 22.3125 -1.421875 
Q 14.109375 -1.421875 9.34375 4.171875 
Q 4.59375 9.765625 4.59375 19.484375 
Q 4.59375 27.59375 7.46875 34.9375 
Q 10.359375 42.28125 15.828125 48.09375 
Q 19.4375 51.953125 23.96875 53.96875 
Q 28.515625 56 33.5 56 
Q 38.765625 56 42.796875 53.453125 
Q 46.828125 50.921875 49.03125 46.1875 
L 54.890625 75.984375 
L 63.921875 75.984375 
L 49.125 0 
L 40.09375 0 
z
M 13.921875 21.09375 
Q 13.921875 14.015625 17.109375 10.0625 
Q 20.3125 6.109375 25.984375 6.109375 
Q 30.171875 6.109375 33.765625 8.125 
Q 37.359375 10.15625 40.09375 14.109375 
Q 42.96875 18.21875 44.625 23.578125 
Q 46.296875 28.953125 46.296875 34.1875 
Q 46.296875 40.96875 43.09375 44.765625 
Q 39.890625 48.578125 34.28125 48.578125 
Q 30.03125 48.578125 26.359375 46.578125 
Q 22.703125 44.578125 20.125 40.828125 
Q 17.28125 36.765625 15.59375 31.390625 
Q 13.921875 26.03125 13.921875 21.09375 
z
" id="DejaVuSans-Oblique-100"/>
       <path d="M 10.59375 45.40625 
L 73.1875 45.40625 
L 73.1875 37.203125 
L 10.59375 37.203125 
z
M 10.59375 25.484375 
L 73.1875 25.484375 
L 73.1875 17.1875 
L 10.59375 17.1875 
z
" id="DejaVuSans-61"/>
      </defs>
      <use transform="translate(0 0.78125)" xlink:href="#DejaVuSans-75"/>
      <use transform="translate(66.533203 -15.625)scale(0.7)" xlink:href="#DejaVuSans-Oblique-100"/>
      <use transform="translate(113.701172 0.78125)" xlink:href="#DejaVuSans-32"/>
      <use transform="translate(145.488281 0.78125)" xlink:href="#DejaVuSans-61"/>
      <use transform="translate(229.277344 0.78125)" xlink:href="#DejaVuSans-32"/>
      <use transform="translate(261.064453 0.78125)" xlink:href="#DejaVuSans-48"/>
      <use transform="translate(324.6875 0.78125)" xlink:href="#DejaVuSans-46"/>
      <use transform="translate(356.474609 0.78125)" xlink:href="#DejaVuSans-48"/>
      <use transform="translate(420.097656 0.78125)" xlink:href="#DejaVuSans-50"/>
     </g>
    </g>
    <g id="line2d_29">
     <path d="M 329.32 69.248563 
L 349.32 69.248563 
" style="fill:none;stroke:#ff7f0e;stroke-linecap:square;stroke-width:1.5;"/>
    </g>
    <g id="line2d_30"/>
    <g id="text_15">
     <!-- K$_d$ = 0.1 -->
     <g transform="translate(357.32 72.748563)scale(0.1 -0.1)">
      <use transform="translate(0 0.78125)" xlink:href="#DejaVuSans-75"/>
      <use transform="translate(66.533203 -15.625)scale(0.7)" xlink:href="#DejaVuSans-Oblique-100"/>
      <use transform="translate(113.701172 0.78125)" xlink:href="#DejaVuSans-32"/>
      <use transform="translate(145.488281 0.78125)" xlink:href="#DejaVuSans-61"/>
      <use transform="translate(229.277344 0.78125)" xlink:href="#DejaVuSans-32"/>
      <use transform="translate(261.064453 0.78125)" xlink:href="#DejaVuSans-48"/>
      <use transform="translate(324.6875 0.78125)" xlink:href="#DejaVuSans-46"/>
      <use transform="translate(356.474609 0.78125)" xlink:href="#DejaVuSans-49"/>
     </g>
    </g>
    <g id="line2d_31">
     <path d="M 329.32 83.926688 
L 349.32 83.926688 
" style="fill:none;stroke:#2ca02c;stroke-linecap:square;stroke-width:1.5;"/>
    </g>
    <g id="line2d_32"/>
    <g id="text_16">
     <!-- K$_d$ = 0.2 -->
     <g transform="translate(357.32 87.426688)scale(0.1 -0.1)">
      <use transform="translate(0 0.78125)" xlink:href="#DejaVuSans-75"/>
      <use transform="translate(66.533203 -15.625)scale(0.7)" xlink:href="#DejaVuSans-Oblique-100"/>
      <use transform="translate(113.701172 0.78125)" xlink:href="#DejaVuSans-32"/>
      <use transform="translate(145.488281 0.78125)" xlink:href="#DejaVuSans-61"/>
      <use transform="translate(229.277344 0.78125)" xlink:href="#DejaVuSans-32"/>
      <use transform="translate(261.064453 0.78125)" xlink:href="#DejaVuSans-48"/>
      <use transform="translate(324.6875 0.78125)" xlink:href="#DejaVuSans-46"/>
      <use transform="translate(350.974609 0.78125)" xlink:href="#DejaVuSans-50"/>
     </g>
    </g>
    <g id="line2d_33">
     <path d="M 329.32 98.604813 
L 349.32 98.604813 
" style="fill:none;stroke:#d62728;stroke-linecap:square;stroke-width:1.5;"/>
    </g>
    <g id="line2d_34"/>
    <g id="text_17">
     <!-- K$_d$ = 0.5 -->
     <g transform="translate(357.32 102.104813)scale(0.1 -0.1)">
      <use transform="translate(0 0.78125)" xlink:href="#DejaVuSans-75"/>
      <use transform="translate(66.533203 -15.625)scale(0.7)" xlink:href="#DejaVuSans-Oblique-100"/>
      <use transform="translate(113.701172 0.78125)" xlink:href="#DejaVuSans-32"/>
      <use transform="translate(145.488281 0.78125)" xlink:href="#DejaVuSans-61"/>
      <use transform="translate(229.277344 0.78125)" xlink:href="#DejaVuSans-32"/>
      <use transform="translate(261.064453 0.78125)" xlink:href="#DejaVuSans-48"/>
      <use transform="translate(324.6875 0.78125)" xlink:href="#DejaVuSans-46"/>
      <use transform="translate(356.474609 0.78125)" xlink:href="#DejaVuSans-53"/>
     </g>
    </g>
   </g>
  </g>
 </g>
 <defs>
  <clipPath id="p97097224e1">
   <rect height="266.112" width="357.12" x="57.6" y="41.472"/>
  </clipPath>
 </defs>
</svg>
