<?xml version="1.0" encoding="utf-8" standalone="no"?>
<!DOCTYPE svg PUBLIC "-//W3C//DTD SVG 1.1//EN"
  "http://www.w3.org/Graphics/SVG/1.1/DTD/svg11.dtd">
<!-- Created with matplotlib (https://matplotlib.org/) -->
<svg height="345.6pt" version="1.1" viewBox="0 0 460.8 345.6" width="460.8pt" xmlns="http://www.w3.org/2000/svg" xmlns:xlink="http://www.w3.org/1999/xlink">
 <metadata>
  <rdf:RDF xmlns:cc="http://creativecommons.org/ns#" xmlns:dc="http://purl.org/dc/elements/1.1/" xmlns:rdf="http://www.w3.org/1999/02/22-rdf-syntax-ns#">
   <cc:Work>
    <dc:type rdf:resource="http://purl.org/dc/dcmitype/StillImage"/>
    <dc:date>2020-10-26T13:49:00.305276</dc:date>
    <dc:format>image/svg+xml</dc:format>
    <dc:creator>
     <cc:Agent>
      <dc:title>Matplotlib v3.3.2, https://matplotlib.org/</dc:title>
     </cc:Agent>
    </dc:creator>
   </cc:Work>
  </rdf:RDF>
 </metadata>
 <defs>
  <style type="text/css">*{stroke-linecap:butt;stroke-linejoin:round;}</style>
 </defs>
 <g id="figure_1">
  <g id="patch_1">
   <path d="M 0 345.6 
L 460.8 345.6 
L 460.8 0 
L 0 0 
z
" style="fill:#ffffff;"/>
  </g>
  <g id="axes_1">
   <g id="patch_2">
    <path d="M 57.6 307.584 
L 414.72 307.584 
L 414.72 41.472 
L 57.6 41.472 
z
" style="fill:#ffffff;"/>
   </g>
   <g id="matplotlib.axis_1">
    <g id="xtick_1">
     <g id="line2d_1">
      <path clip-path="url(#pa5b20f4e1d)" d="M 73.832727 307.584 
L 73.832727 41.472 
" style="fill:none;stroke:#b0b0b0;stroke-linecap:square;stroke-width:0.8;"/>
     </g>
     <g id="line2d_2">
      <defs>
       <path d="M 0 0 
L 0 3.5 
" id="mfc096d64ee" style="stroke:#000000;stroke-width:0.8;"/>
      </defs>
      <g>
       <use style="stroke:#000000;stroke-width:0.8;" x="73.832727" xlink:href="#mfc096d64ee" y="307.584"/>
      </g>
     </g>
     <g id="text_1">
      <!-- 0 -->
      <g transform="translate(70.651477 322.182437)scale(0.1 -0.1)">
       <defs>
        <path d="M 31.78125 66.40625 
Q 24.171875 66.40625 20.328125 58.90625 
Q 16.5 51.421875 16.5 36.375 
Q 16.5 21.390625 20.328125 13.890625 
Q 24.171875 6.390625 31.78125 6.390625 
Q 39.453125 6.390625 43.28125 13.890625 
Q 47.125 21.390625 47.125 36.375 
Q 47.125 51.421875 43.28125 58.90625 
Q 39.453125 66.40625 31.78125 66.40625 
z
M 31.78125 74.21875 
Q 44.046875 74.21875 50.515625 64.515625 
Q 56.984375 54.828125 56.984375 36.375 
Q 56.984375 17.96875 50.515625 8.265625 
Q 44.046875 -1.421875 31.78125 -1.421875 
Q 19.53125 -1.421875 13.0625 8.265625 
Q 6.59375 17.96875 6.59375 36.375 
Q 6.59375 54.828125 13.0625 64.515625 
Q 19.53125 74.21875 31.78125 74.21875 
z
" id="DejaVuSans-48"/>
       </defs>
       <use xlink:href="#DejaVuSans-48"/>
      </g>
     </g>
    </g>
    <g id="xtick_2">
     <g id="line2d_3">
      <path clip-path="url(#pa5b20f4e1d)" d="M 138.773677 307.584 
L 138.773677 41.472 
" style="fill:none;stroke:#b0b0b0;stroke-linecap:square;stroke-width:0.8;"/>
     </g>
     <g id="line2d_4">
      <g>
       <use style="stroke:#000000;stroke-width:0.8;" x="138.773677" xlink:href="#mfc096d64ee" y="307.584"/>
      </g>
     </g>
     <g id="text_2">
      <!-- 50 -->
      <g transform="translate(132.411177 322.182437)scale(0.1 -0.1)">
       <defs>
        <path d="M 10.796875 72.90625 
L 49.515625 72.90625 
L 49.515625 64.59375 
L 19.828125 64.59375 
L 19.828125 46.734375 
Q 21.96875 47.46875 24.109375 47.828125 
Q 26.265625 48.1875 28.421875 48.1875 
Q 40.625 48.1875 47.75 41.5 
Q 54.890625 34.8125 54.890625 23.390625 
Q 54.890625 11.625 47.5625 5.09375 
Q 40.234375 -1.421875 26.90625 -1.421875 
Q 22.3125 -1.421875 17.546875 -0.640625 
Q 12.796875 0.140625 7.71875 1.703125 
L 7.71875 11.625 
Q 12.109375 9.234375 16.796875 8.0625 
Q 21.484375 6.890625 26.703125 6.890625 
Q 35.15625 6.890625 40.078125 11.328125 
Q 45.015625 15.765625 45.015625 23.390625 
Q 45.015625 31 40.078125 35.4375 
Q 35.15625 39.890625 26.703125 39.890625 
Q 22.75 39.890625 18.8125 39.015625 
Q 14.890625 38.140625 10.796875 36.28125 
z
" id="DejaVuSans-53"/>
       </defs>
       <use xlink:href="#DejaVuSans-53"/>
       <use x="63.623047" xlink:href="#DejaVuSans-48"/>
      </g>
     </g>
    </g>
    <g id="xtick_3">
     <g id="line2d_5">
      <path clip-path="url(#pa5b20f4e1d)" d="M 203.714627 307.584 
L 203.714627 41.472 
" style="fill:none;stroke:#b0b0b0;stroke-linecap:square;stroke-width:0.8;"/>
     </g>
     <g id="line2d_6">
      <g>
       <use style="stroke:#000000;stroke-width:0.8;" x="203.714627" xlink:href="#mfc096d64ee" y="307.584"/>
      </g>
     </g>
     <g id="text_3">
      <!-- 100 -->
      <g transform="translate(194.170877 322.182437)scale(0.1 -0.1)">
       <defs>
        <path d="M 12.40625 8.296875 
L 28.515625 8.296875 
L 28.515625 63.921875 
L 10.984375 60.40625 
L 10.984375 69.390625 
L 28.421875 72.90625 
L 38.28125 72.90625 
L 38.28125 8.296875 
L 54.390625 8.296875 
L 54.390625 0 
L 12.40625 0 
z
" id="DejaVuSans-49"/>
       </defs>
       <use xlink:href="#DejaVuSans-49"/>
       <use x="63.623047" xlink:href="#DejaVuSans-48"/>
       <use x="127.246094" xlink:href="#DejaVuSans-48"/>
      </g>
     </g>
    </g>
    <g id="xtick_4">
     <g id="line2d_7">
      <path clip-path="url(#pa5b20f4e1d)" d="M 268.655577 307.584 
L 268.655577 41.472 
" style="fill:none;stroke:#b0b0b0;stroke-linecap:square;stroke-width:0.8;"/>
     </g>
     <g id="line2d_8">
      <g>
       <use style="stroke:#000000;stroke-width:0.8;" x="268.655577" xlink:href="#mfc096d64ee" y="307.584"/>
      </g>
     </g>
     <g id="text_4">
      <!-- 150 -->
      <g transform="translate(259.111827 322.182437)scale(0.1 -0.1)">
       <use xlink:href="#DejaVuSans-49"/>
       <use x="63.623047" xlink:href="#DejaVuSans-53"/>
       <use x="127.246094" xlink:href="#DejaVuSans-48"/>
      </g>
     </g>
    </g>
    <g id="xtick_5">
     <g id="line2d_9">
      <path clip-path="url(#pa5b20f4e1d)" d="M 333.596528 307.584 
L 333.596528 41.472 
" style="fill:none;stroke:#b0b0b0;stroke-linecap:square;stroke-width:0.8;"/>
     </g>
     <g id="line2d_10">
      <g>
       <use style="stroke:#000000;stroke-width:0.8;" x="333.596528" xlink:href="#mfc096d64ee" y="307.584"/>
      </g>
     </g>
     <g id="text_5">
      <!-- 200 -->
      <g transform="translate(324.052778 322.182437)scale(0.1 -0.1)">
       <defs>
        <path d="M 19.1875 8.296875 
L 53.609375 8.296875 
L 53.609375 0 
L 7.328125 0 
L 7.328125 8.296875 
Q 12.9375 14.109375 22.625 23.890625 
Q 32.328125 33.6875 34.8125 36.53125 
Q 39.546875 41.84375 41.421875 45.53125 
Q 43.3125 49.21875 43.3125 52.78125 
Q 43.3125 58.59375 39.234375 62.25 
Q 35.15625 65.921875 28.609375 65.921875 
Q 23.96875 65.921875 18.8125 64.3125 
Q 13.671875 62.703125 7.8125 59.421875 
L 7.8125 69.390625 
Q 13.765625 71.78125 18.9375 73 
Q 24.125 74.21875 28.421875 74.21875 
Q 39.75 74.21875 46.484375 68.546875 
Q 53.21875 62.890625 53.21875 53.421875 
Q 53.21875 48.921875 51.53125 44.890625 
Q 49.859375 40.875 45.40625 35.40625 
Q 44.1875 33.984375 37.640625 27.21875 
Q 31.109375 20.453125 19.1875 8.296875 
z
" id="DejaVuSans-50"/>
       </defs>
       <use xlink:href="#DejaVuSans-50"/>
       <use x="63.623047" xlink:href="#DejaVuSans-48"/>
       <use x="127.246094" xlink:href="#DejaVuSans-48"/>
      </g>
     </g>
    </g>
    <g id="xtick_6">
     <g id="line2d_11">
      <path clip-path="url(#pa5b20f4e1d)" d="M 398.537478 307.584 
L 398.537478 41.472 
" style="fill:none;stroke:#b0b0b0;stroke-linecap:square;stroke-width:0.8;"/>
     </g>
     <g id="line2d_12">
      <g>
       <use style="stroke:#000000;stroke-width:0.8;" x="398.537478" xlink:href="#mfc096d64ee" y="307.584"/>
      </g>
     </g>
     <g id="text_6">
      <!-- 250 -->
      <g transform="translate(388.993728 322.182437)scale(0.1 -0.1)">
       <use xlink:href="#DejaVuSans-50"/>
       <use x="63.623047" xlink:href="#DejaVuSans-53"/>
       <use x="127.246094" xlink:href="#DejaVuSans-48"/>
      </g>
     </g>
    </g>
    <g id="text_7">
     <!-- x Position (m) -->
     <g transform="translate(201.786563 335.860562)scale(0.1 -0.1)">
      <defs>
       <path d="M 54.890625 54.6875 
L 35.109375 28.078125 
L 55.90625 0 
L 45.3125 0 
L 29.390625 21.484375 
L 13.484375 0 
L 2.875 0 
L 24.125 28.609375 
L 4.6875 54.6875 
L 15.28125 54.6875 
L 29.78125 35.203125 
L 44.28125 54.6875 
z
" id="DejaVuSans-120"/>
       <path id="DejaVuSans-32"/>
       <path d="M 19.671875 64.796875 
L 19.671875 37.40625 
L 32.078125 37.40625 
Q 38.96875 37.40625 42.71875 40.96875 
Q 46.484375 44.53125 46.484375 51.125 
Q 46.484375 57.671875 42.71875 61.234375 
Q 38.96875 64.796875 32.078125 64.796875 
z
M 9.8125 72.90625 
L 32.078125 72.90625 
Q 44.34375 72.90625 50.609375 67.359375 
Q 56.890625 61.8125 56.890625 51.125 
Q 56.890625 40.328125 50.609375 34.8125 
Q 44.34375 29.296875 32.078125 29.296875 
L 19.671875 29.296875 
L 19.671875 0 
L 9.8125 0 
z
" id="DejaVuSans-80"/>
       <path d="M 30.609375 48.390625 
Q 23.390625 48.390625 19.1875 42.75 
Q 14.984375 37.109375 14.984375 27.296875 
Q 14.984375 17.484375 19.15625 11.84375 
Q 23.34375 6.203125 30.609375 6.203125 
Q 37.796875 6.203125 41.984375 11.859375 
Q 46.1875 17.53125 46.1875 27.296875 
Q 46.1875 37.015625 41.984375 42.703125 
Q 37.796875 48.390625 30.609375 48.390625 
z
M 30.609375 56 
Q 42.328125 56 49.015625 48.375 
Q 55.71875 40.765625 55.71875 27.296875 
Q 55.71875 13.875 49.015625 6.21875 
Q 42.328125 -1.421875 30.609375 -1.421875 
Q 18.84375 -1.421875 12.171875 6.21875 
Q 5.515625 13.875 5.515625 27.296875 
Q 5.515625 40.765625 12.171875 48.375 
Q 18.84375 56 30.609375 56 
z
" id="DejaVuSans-111"/>
       <path d="M 44.28125 53.078125 
L 44.28125 44.578125 
Q 40.484375 46.53125 36.375 47.5 
Q 32.28125 48.484375 27.875 48.484375 
Q 21.1875 48.484375 17.84375 46.4375 
Q 14.5 44.390625 14.5 40.28125 
Q 14.5 37.15625 16.890625 35.375 
Q 19.28125 33.59375 26.515625 31.984375 
L 29.59375 31.296875 
Q 39.15625 29.25 43.1875 25.515625 
Q 47.21875 21.78125 47.21875 15.09375 
Q 47.21875 7.46875 41.1875 3.015625 
Q 35.15625 -1.421875 24.609375 -1.421875 
Q 20.21875 -1.421875 15.453125 -0.5625 
Q 10.6875 0.296875 5.421875 2 
L 5.421875 11.28125 
Q 10.40625 8.6875 15.234375 7.390625 
Q 20.0625 6.109375 24.8125 6.109375 
Q 31.15625 6.109375 34.5625 8.28125 
Q 37.984375 10.453125 37.984375 14.40625 
Q 37.984375 18.0625 35.515625 20.015625 
Q 33.0625 21.96875 24.703125 23.78125 
L 21.578125 24.515625 
Q 13.234375 26.265625 9.515625 29.90625 
Q 5.8125 33.546875 5.8125 39.890625 
Q 5.8125 47.609375 11.28125 51.796875 
Q 16.75 56 26.8125 56 
Q 31.78125 56 36.171875 55.265625 
Q 40.578125 54.546875 44.28125 53.078125 
z
" id="DejaVuSans-115"/>
       <path d="M 9.421875 54.6875 
L 18.40625 54.6875 
L 18.40625 0 
L 9.421875 0 
z
M 9.421875 75.984375 
L 18.40625 75.984375 
L 18.40625 64.59375 
L 9.421875 64.59375 
z
" id="DejaVuSans-105"/>
       <path d="M 18.3125 70.21875 
L 18.3125 54.6875 
L 36.8125 54.6875 
L 36.8125 47.703125 
L 18.3125 47.703125 
L 18.3125 18.015625 
Q 18.3125 11.328125 20.140625 9.421875 
Q 21.96875 7.515625 27.59375 7.515625 
L 36.8125 7.515625 
L 36.8125 0 
L 27.59375 0 
Q 17.1875 0 13.234375 3.875 
Q 9.28125 7.765625 9.28125 18.015625 
L 9.28125 47.703125 
L 2.6875 47.703125 
L 2.6875 54.6875 
L 9.28125 54.6875 
L 9.28125 70.21875 
z
" id="DejaVuSans-116"/>
       <path d="M 54.890625 33.015625 
L 54.890625 0 
L 45.90625 0 
L 45.90625 32.71875 
Q 45.90625 40.484375 42.875 44.328125 
Q 39.84375 48.1875 33.796875 48.1875 
Q 26.515625 48.1875 22.3125 43.546875 
Q 18.109375 38.921875 18.109375 30.90625 
L 18.109375 0 
L 9.078125 0 
L 9.078125 54.6875 
L 18.109375 54.6875 
L 18.109375 46.1875 
Q 21.34375 51.125 25.703125 53.5625 
Q 30.078125 56 35.796875 56 
Q 45.21875 56 50.046875 50.171875 
Q 54.890625 44.34375 54.890625 33.015625 
z
" id="DejaVuSans-110"/>
       <path d="M 31 75.875 
Q 24.46875 64.65625 21.28125 53.65625 
Q 18.109375 42.671875 18.109375 31.390625 
Q 18.109375 20.125 21.3125 9.0625 
Q 24.515625 -2 31 -13.1875 
L 23.1875 -13.1875 
Q 15.875 -1.703125 12.234375 9.375 
Q 8.59375 20.453125 8.59375 31.390625 
Q 8.59375 42.28125 12.203125 53.3125 
Q 15.828125 64.359375 23.1875 75.875 
z
" id="DejaVuSans-40"/>
       <path d="M 52 44.1875 
Q 55.375 50.25 60.0625 53.125 
Q 64.75 56 71.09375 56 
Q 79.640625 56 84.28125 50.015625 
Q 88.921875 44.046875 88.921875 33.015625 
L 88.921875 0 
L 79.890625 0 
L 79.890625 32.71875 
Q 79.890625 40.578125 77.09375 44.375 
Q 74.3125 48.1875 68.609375 48.1875 
Q 61.625 48.1875 57.5625 43.546875 
Q 53.515625 38.921875 53.515625 30.90625 
L 53.515625 0 
L 44.484375 0 
L 44.484375 32.71875 
Q 44.484375 40.625 41.703125 44.40625 
Q 38.921875 48.1875 33.109375 48.1875 
Q 26.21875 48.1875 22.15625 43.53125 
Q 18.109375 38.875 18.109375 30.90625 
L 18.109375 0 
L 9.078125 0 
L 9.078125 54.6875 
L 18.109375 54.6875 
L 18.109375 46.1875 
Q 21.1875 51.21875 25.484375 53.609375 
Q 29.78125 56 35.6875 56 
Q 41.65625 56 45.828125 52.96875 
Q 50 49.953125 52 44.1875 
z
" id="DejaVuSans-109"/>
       <path d="M 8.015625 75.875 
L 15.828125 75.875 
Q 23.140625 64.359375 26.78125 53.3125 
Q 30.421875 42.28125 30.421875 31.390625 
Q 30.421875 20.453125 26.78125 9.375 
Q 23.140625 -1.703125 15.828125 -13.1875 
L 8.015625 -13.1875 
Q 14.5 -2 17.703125 9.0625 
Q 20.90625 20.125 20.90625 31.390625 
Q 20.90625 42.671875 17.703125 53.65625 
Q 14.5 64.65625 8.015625 75.875 
z
" id="DejaVuSans-41"/>
      </defs>
      <use xlink:href="#DejaVuSans-120"/>
      <use x="59.179688" xlink:href="#DejaVuSans-32"/>
      <use x="90.966797" xlink:href="#DejaVuSans-80"/>
      <use x="147.644531" xlink:href="#DejaVuSans-111"/>
      <use x="208.826172" xlink:href="#DejaVuSans-115"/>
      <use x="260.925781" xlink:href="#DejaVuSans-105"/>
      <use x="288.708984" xlink:href="#DejaVuSans-116"/>
      <use x="327.917969" xlink:href="#DejaVuSans-105"/>
      <use x="355.701172" xlink:href="#DejaVuSans-111"/>
      <use x="416.882812" xlink:href="#DejaVuSans-110"/>
      <use x="480.261719" xlink:href="#DejaVuSans-32"/>
      <use x="512.048828" xlink:href="#DejaVuSans-40"/>
      <use x="551.0625" xlink:href="#DejaVuSans-109"/>
      <use x="648.474609" xlink:href="#DejaVuSans-41"/>
     </g>
    </g>
   </g>
   <g id="matplotlib.axis_2">
    <g id="ytick_1">
     <g id="line2d_13">
      <path clip-path="url(#pa5b20f4e1d)" d="M 57.6 299.696214 
L 414.72 299.696214 
" style="fill:none;stroke:#b0b0b0;stroke-linecap:square;stroke-width:0.8;"/>
     </g>
     <g id="line2d_14">
      <defs>
       <path d="M 0 0 
L -3.5 0 
" id="m0d7ca0bcb2" style="stroke:#000000;stroke-width:0.8;"/>
      </defs>
      <g>
       <use style="stroke:#000000;stroke-width:0.8;" x="57.6" xlink:href="#m0d7ca0bcb2" y="299.696214"/>
      </g>
     </g>
     <g id="text_8">
      <!-- −0.2 -->
      <g transform="translate(26.317187 303.495432)scale(0.1 -0.1)">
       <defs>
        <path d="M 10.59375 35.5 
L 73.1875 35.5 
L 73.1875 27.203125 
L 10.59375 27.203125 
z
" id="DejaVuSans-8722"/>
        <path d="M 10.6875 12.40625 
L 21 12.40625 
L 21 0 
L 10.6875 0 
z
" id="DejaVuSans-46"/>
       </defs>
       <use xlink:href="#DejaVuSans-8722"/>
       <use x="83.789062" xlink:href="#DejaVuSans-48"/>
       <use x="147.412109" xlink:href="#DejaVuSans-46"/>
       <use x="179.199219" xlink:href="#DejaVuSans-50"/>
      </g>
     </g>
    </g>
    <g id="ytick_2">
     <g id="line2d_15">
      <path clip-path="url(#pa5b20f4e1d)" d="M 57.6 250.470571 
L 414.72 250.470571 
" style="fill:none;stroke:#b0b0b0;stroke-linecap:square;stroke-width:0.8;"/>
     </g>
     <g id="line2d_16">
      <g>
       <use style="stroke:#000000;stroke-width:0.8;" x="57.6" xlink:href="#m0d7ca0bcb2" y="250.470571"/>
      </g>
     </g>
     <g id="text_9">
      <!-- −0.1 -->
      <g transform="translate(26.317187 254.26979)scale(0.1 -0.1)">
       <use xlink:href="#DejaVuSans-8722"/>
       <use x="83.789062" xlink:href="#DejaVuSans-48"/>
       <use x="147.412109" xlink:href="#DejaVuSans-46"/>
       <use x="179.199219" xlink:href="#DejaVuSans-49"/>
      </g>
     </g>
    </g>
    <g id="ytick_3">
     <g id="line2d_17">
      <path clip-path="url(#pa5b20f4e1d)" d="M 57.6 201.244928 
L 414.72 201.244928 
" style="fill:none;stroke:#b0b0b0;stroke-linecap:square;stroke-width:0.8;"/>
     </g>
     <g id="line2d_18">
      <g>
       <use style="stroke:#000000;stroke-width:0.8;" x="57.6" xlink:href="#m0d7ca0bcb2" y="201.244928"/>
      </g>
     </g>
     <g id="text_10">
      <!-- 0.0 -->
      <g transform="translate(34.696875 205.044147)scale(0.1 -0.1)">
       <use xlink:href="#DejaVuSans-48"/>
       <use x="63.623047" xlink:href="#DejaVuSans-46"/>
       <use x="95.410156" xlink:href="#DejaVuSans-48"/>
      </g>
     </g>
    </g>
    <g id="ytick_4">
     <g id="line2d_19">
      <path clip-path="url(#pa5b20f4e1d)" d="M 57.6 152.019285 
L 414.72 152.019285 
" style="fill:none;stroke:#b0b0b0;stroke-linecap:square;stroke-width:0.8;"/>
     </g>
     <g id="line2d_20">
      <g>
       <use style="stroke:#000000;stroke-width:0.8;" x="57.6" xlink:href="#m0d7ca0bcb2" y="152.019285"/>
      </g>
     </g>
     <g id="text_11">
      <!-- 0.1 -->
      <g transform="translate(34.696875 155.818504)scale(0.1 -0.1)">
       <use xlink:href="#DejaVuSans-48"/>
       <use x="63.623047" xlink:href="#DejaVuSans-46"/>
       <use x="95.410156" xlink:href="#DejaVuSans-49"/>
      </g>
     </g>
    </g>
    <g id="ytick_5">
     <g id="line2d_21">
      <path clip-path="url(#pa5b20f4e1d)" d="M 57.6 102.793643 
L 414.72 102.793643 
" style="fill:none;stroke:#b0b0b0;stroke-linecap:square;stroke-width:0.8;"/>
     </g>
     <g id="line2d_22">
      <g>
       <use style="stroke:#000000;stroke-width:0.8;" x="57.6" xlink:href="#m0d7ca0bcb2" y="102.793643"/>
      </g>
     </g>
     <g id="text_12">
      <!-- 0.2 -->
      <g transform="translate(34.696875 106.592861)scale(0.1 -0.1)">
       <use xlink:href="#DejaVuSans-48"/>
       <use x="63.623047" xlink:href="#DejaVuSans-46"/>
       <use x="95.410156" xlink:href="#DejaVuSans-50"/>
      </g>
     </g>
    </g>
    <g id="ytick_6">
     <g id="line2d_23">
      <path clip-path="url(#pa5b20f4e1d)" d="M 57.6 53.568 
L 414.72 53.568 
" style="fill:none;stroke:#b0b0b0;stroke-linecap:square;stroke-width:0.8;"/>
     </g>
     <g id="line2d_24">
      <g>
       <use style="stroke:#000000;stroke-width:0.8;" x="57.6" xlink:href="#m0d7ca0bcb2" y="53.568"/>
      </g>
     </g>
     <g id="text_13">
      <!-- 0.3 -->
      <g transform="translate(34.696875 57.367219)scale(0.1 -0.1)">
       <defs>
        <path d="M 40.578125 39.3125 
Q 47.65625 37.796875 51.625 33 
Q 55.609375 28.21875 55.609375 21.1875 
Q 55.609375 10.40625 48.1875 4.484375 
Q 40.765625 -1.421875 27.09375 -1.421875 
Q 22.515625 -1.421875 17.65625 -0.515625 
Q 12.796875 0.390625 7.625 2.203125 
L 7.625 11.71875 
Q 11.71875 9.328125 16.59375 8.109375 
Q 21.484375 6.890625 26.8125 6.890625 
Q 36.078125 6.890625 40.9375 10.546875 
Q 45.796875 14.203125 45.796875 21.1875 
Q 45.796875 27.640625 41.28125 31.265625 
Q 36.765625 34.90625 28.71875 34.90625 
L 20.21875 34.90625 
L 20.21875 43.015625 
L 29.109375 43.015625 
Q 36.375 43.015625 40.234375 45.921875 
Q 44.09375 48.828125 44.09375 54.296875 
Q 44.09375 59.90625 40.109375 62.90625 
Q 36.140625 65.921875 28.71875 65.921875 
Q 24.65625 65.921875 20.015625 65.03125 
Q 15.375 64.15625 9.8125 62.3125 
L 9.8125 71.09375 
Q 15.4375 72.65625 20.34375 73.4375 
Q 25.25 74.21875 29.59375 74.21875 
Q 40.828125 74.21875 47.359375 69.109375 
Q 53.90625 64.015625 53.90625 55.328125 
Q 53.90625 49.265625 50.4375 45.09375 
Q 46.96875 40.921875 40.578125 39.3125 
z
" id="DejaVuSans-51"/>
       </defs>
       <use xlink:href="#DejaVuSans-48"/>
       <use x="63.623047" xlink:href="#DejaVuSans-46"/>
       <use x="95.410156" xlink:href="#DejaVuSans-51"/>
      </g>
     </g>
    </g>
    <g id="text_14">
     <!-- y Position (m) -->
     <g transform="translate(20.2375 208.901437)rotate(-90)scale(0.1 -0.1)">
      <defs>
       <path d="M 32.171875 -5.078125 
Q 28.375 -14.84375 24.75 -17.8125 
Q 21.140625 -20.796875 15.09375 -20.796875 
L 7.90625 -20.796875 
L 7.90625 -13.28125 
L 13.1875 -13.28125 
Q 16.890625 -13.28125 18.9375 -11.515625 
Q 21 -9.765625 23.484375 -3.21875 
L 25.09375 0.875 
L 2.984375 54.6875 
L 12.5 54.6875 
L 29.59375 11.921875 
L 46.6875 54.6875 
L 56.203125 54.6875 
z
" id="DejaVuSans-121"/>
      </defs>
      <use xlink:href="#DejaVuSans-121"/>
      <use x="59.179688" xlink:href="#DejaVuSans-32"/>
      <use x="90.966797" xlink:href="#DejaVuSans-80"/>
      <use x="147.644531" xlink:href="#DejaVuSans-111"/>
      <use x="208.826172" xlink:href="#DejaVuSans-115"/>
      <use x="260.925781" xlink:href="#DejaVuSans-105"/>
      <use x="288.708984" xlink:href="#DejaVuSans-116"/>
      <use x="327.917969" xlink:href="#DejaVuSans-105"/>
      <use x="355.701172" xlink:href="#DejaVuSans-111"/>
      <use x="416.882812" xlink:href="#DejaVuSans-110"/>
      <use x="480.261719" xlink:href="#DejaVuSans-32"/>
      <use x="512.048828" xlink:href="#DejaVuSans-40"/>
      <use x="551.0625" xlink:href="#DejaVuSans-109"/>
      <use x="648.474609" xlink:href="#DejaVuSans-41"/>
     </g>
    </g>
   </g>
   <g id="line2d_25">
    <path clip-path="url(#pa5b20f4e1d)" d="M 73.832727 53.568 
L 74.482046 57.134694 
L 75.130843 67.643054 
L 75.778726 84.424717 
L 76.425538 106.375607 
L 77.716559 160.171343 
L 79.652762 241.949765 
L 80.29968 263.450025 
L 80.947602 280.027145 
L 81.596365 290.864547 
L 82.245642 295.488 
L 82.895018 293.788735 
L 83.544089 286.022195 
L 84.192547 272.782516 
L 84.840243 254.956144 
L 86.133658 210.171795 
L 88.073087 140.154908 
L 88.720576 121.26546 
L 89.36879 106.395976 
L 90.01764 96.28793 
L 90.666909 91.398385 
L 91.316304 91.878126 
L 91.965528 97.569293 
L 92.614343 108.022751 
L 93.262617 122.533097 
L 94.557668 159.923585 
L 96.499408 220.089278 
L 97.147322 236.759338 
L 97.795762 250.162123 
L 98.444684 259.62657 
L 99.093945 264.717679 
L 99.743344 265.257173 
L 100.392662 261.328323 
L 101.041716 253.264574 
L 101.690394 241.62326 
L 102.986636 210.716555 
L 104.930159 159.451708 
L 105.578429 144.89008 
L 106.227072 132.970357 
L 106.876073 124.297561 
L 107.525341 119.281068 
L 108.174737 118.115187 
L 108.824102 120.77271 
L 109.473297 127.011877 
L 110.122231 136.395948 
L 111.419271 162.067245 
L 114.01258 218.764654 
L 114.661377 229.434285 
L 115.310439 237.436246 
L 115.959713 242.38899 
L 116.609102 244.090919 
L 117.258494 242.527846 
L 117.907783 237.869313 
L 118.556895 230.4542 
L 119.205799 220.766963 
L 120.503106 197.049037 
L 122.449016 161.096511 
L 123.097949 151.688617 
L 123.747076 144.464018 
L 124.396364 139.775266 
L 125.04575 137.824595 
L 125.695152 138.655888 
L 126.344493 142.155975 
L 126.993713 148.064988 
L 127.642784 155.994877 
L 128.94054 175.880386 
L 130.887041 206.926701 
L 131.536074 215.295767 
L 132.185249 221.885178 
L 132.834548 226.371639 
L 133.48393 228.557156 
L 134.133337 228.377301 
L 134.782711 225.901665 
L 135.432007 221.326608 
L 136.081198 214.960966 
L 137.37929 198.52955 
L 139.326266 172.078394 
L 139.975388 164.759897 
L 140.624611 158.885341 
L 141.273927 154.749175 
L 141.923309 152.541652 
L 142.572716 152.340571 
L 143.222107 154.109591 
L 143.871446 157.70308 
L 144.520711 162.877043 
L 145.819023 176.599897 
L 147.766324 199.369952 
L 148.415508 205.846362 
L 149.064766 211.15687 
L 149.714093 215.034928 
L 150.363474 217.3004 
L 151.012881 217.867626 
L 151.662282 216.747959 
L 152.311652 214.046765 
L 152.960971 209.955165 
L 154.259448 198.713123 
L 156.856253 173.819606 
L 157.505544 169.137606 
L 158.154887 165.631615 
L 158.804271 163.470138 
L 159.453676 162.742493 
L 160.103082 163.455708 
L 160.752468 165.536133 
L 161.401818 168.83556 
L 162.700401 178.190069 
L 165.297418 199.690543 
L 165.946732 203.894395 
L 166.596085 207.136288 
L 167.245469 209.260172 
L 167.894874 210.176211 
L 168.544282 209.864213 
L 169.193679 208.373066 
L 169.843053 205.816303 
L 170.492398 202.364152 
L 171.791014 193.670252 
L 173.738911 180.06131 
L 174.388248 176.392714 
L 175.037613 173.507568 
L 175.687001 171.549155 
L 176.336405 170.605534 
L 176.985814 170.705953 
L 177.635217 171.820646 
L 178.284604 173.863943 
L 178.93397 176.700438 
L 180.232645 184.01756 
L 182.180624 195.81729 
L 182.829976 199.094958 
L 183.479348 201.737284 
L 184.128738 203.613679 
L 184.778141 204.639485 
L 185.42755 204.779588 
L 186.076957 204.049176 
L 186.726353 202.511661 
L 187.375736 200.273945 
L 188.674459 194.298877 
L 190.62251 184.34514 
L 191.271876 181.512872 
L 191.921257 179.193113 
L 192.570651 177.504113 
L 193.220055 176.52603 
L 193.869464 176.297385 
L 194.518872 176.813921 
L 195.168273 178.029887 
L 195.817664 179.861613 
L 197.116415 184.883356 
L 199.713886 196.025399 
L 200.363272 198.136324 
L 201.012668 199.729509 
L 201.662072 200.72998 
L 202.31148 201.097676 
L 202.960889 200.828825 
L 203.610294 199.955276 
L 204.259693 198.541844 
L 205.558468 194.491371 
L 208.155988 185.12594 
L 208.805379 183.295975 
L 209.454778 181.8892 
L 210.104183 180.975022 
L 210.753592 180.59366 
L 211.403001 180.75461 
L 212.052408 181.436867 
L 212.70181 182.590846 
L 213.351207 184.141845 
L 214.649985 188.040275 
L 216.598146 194.155291 
L 217.247541 195.814246 
L 217.896941 197.128589 
L 218.546346 198.034619 
L 219.195755 198.492972 
L 219.845164 198.490231 
L 220.494572 198.039034 
L 221.143978 197.176734 
L 221.793379 195.962711 
L 223.092171 192.803094 
L 225.040353 187.684594 
L 225.689752 186.264309 
L 226.339154 185.123225 
L 226.98856 184.319377 
L 227.637969 183.890557 
L 228.287378 183.852705 
L 228.936787 184.19955 
L 229.586194 184.903504 
L 230.235598 185.917724 
L 231.534397 188.612652 
L 233.482589 193.104854 
L 234.781393 195.451429 
L 235.4308 196.234379 
L 236.080208 196.703849 
L 236.729617 196.842456 
L 237.379026 196.651707 
L 238.028435 196.151444 
L 238.677841 195.378297 
L 239.976647 193.228316 
L 242.574254 188.42548 
L 243.223659 187.519438 
L 243.873066 186.841167 
L 244.522475 186.424069 
L 245.171884 186.286153 
L 245.821294 186.429405 
L 246.470702 186.840071 
L 247.12011 187.48981 
L 248.418919 189.332486 
L 251.016533 193.590013 
L 251.665939 194.431118 
L 252.315346 195.086016 
L 252.964754 195.52381 
L 253.614164 195.726473 
L 254.263573 195.689534 
L 254.912982 195.422001 
L 255.56239 194.945528 
L 256.861204 193.505909 
L 260.108232 189.309863 
L 260.75764 188.754763 
L 261.407049 188.379457 
L 262.056458 188.201554 
L 262.705868 188.227217 
L 263.355277 188.451094 
L 264.004685 188.856902 
L 265.3035 190.102093 
L 268.550532 193.871511 
L 269.19994 194.406246 
L 269.849349 194.79243 
L 270.498758 195.013184 
L 271.148168 195.061268 
L 271.797577 194.939254 
L 272.446986 194.65914 
L 273.745803 193.713884 
L 277.642249 190.221364 
L 278.291658 189.900139 
L 278.941067 189.717057 
L 279.590476 189.679963 
L 280.239886 189.788362 
L 280.889295 190.03365 
L 282.188112 190.864408 
L 286.08456 194.058502 
L 287.383378 194.599945 
L 288.032788 194.689833 
L 288.682197 194.655446 
L 289.981016 194.244043 
L 291.279833 193.485308 
L 293.877467 191.708066 
L 295.176285 191.095803 
L 296.475104 190.860277 
L 297.773922 191.041922 
L 299.072741 191.588515 
L 301.020967 192.796971 
L 302.969193 193.942114 
L 304.268011 194.406556 
L 305.56683 194.527572 
L 306.865649 194.302687 
L 308.164467 193.804699 
L 312.060921 192.049437 
L 313.35974 191.827346 
L 314.658559 191.905657 
L 315.957378 192.259873 
L 317.905605 193.115167 
L 319.853832 193.98366 
L 321.152651 194.371305 
L 322.45147 194.518742 
L 323.750289 194.412396 
L 325.049107 194.094484 
L 329.594972 192.700501 
L 330.893791 192.610799 
L 332.19261 192.737458 
L 334.140838 193.253591 
L 337.387885 194.306784 
L 338.686703 194.545774 
L 339.985522 194.604253 
L 341.284341 194.484738 
L 343.23257 194.069552 
L 345.830207 193.46337 
L 347.778435 193.275493 
L 349.077254 193.342727 
L 351.025483 193.693829 
L 354.921939 194.599646 
L 356.870167 194.763256 
L 358.818396 194.638546 
L 364.663081 193.847073 
L 366.611309 193.936357 
L 369.208947 194.353933 
L 372.455994 194.877208 
L 374.404223 194.962711 
L 377.001861 194.777181 
L 380.898318 194.368745 
L 382.846546 194.357484 
L 385.444184 194.600773 
L 389.99005 195.147113 
L 392.587688 195.167638 
L 398.432374 194.78335 
L 398.432374 194.78335 
" style="fill:none;stroke:#1f77b4;stroke-linecap:square;stroke-width:1.5;"/>
   </g>
   <g id="line2d_26">
    <path clip-path="url(#pa5b20f4e1d)" d="M 73.832727 53.568 
L 74.157421 54.45972 
L 74.482047 57.11723 
L 74.806545 61.480836 
L 75.454969 74.925519 
L 76.102455 93.800051 
L 77.071985 129.518818 
L 79.978588 243.971811 
L 80.626227 262.08287 
L 81.274689 275.287971 
L 81.923762 283.051847 
L 82.248431 284.813318 
L 82.573133 285.159036 
L 82.897824 284.112289 
L 83.222466 281.715415 
L 83.87147 273.129463 
L 84.519958 260.075617 
L 85.491648 234.10892 
L 88.728548 137.222974 
L 89.376995 123.8682 
L 90.025911 114.35537 
L 90.675162 109.058494 
L 90.999855 108.040921 
L 91.324558 108.106365 
L 91.649249 109.232885 
L 91.973903 111.384224 
L 92.623031 118.549825 
L 93.271844 129.062149 
L 94.244452 149.539184 
L 97.48553 223.817574 
L 98.134407 233.752787 
L 98.783554 240.6855 
L 99.108204 242.937177 
L 99.432887 244.355198 
L 99.757587 244.936455 
L 100.082291 244.689493 
L 100.406983 243.634156 
L 100.731651 241.801084 
L 101.380875 235.974228 
L 102.02991 227.642042 
L 103.00311 211.677776 
L 105.922216 159.70463 
L 106.571251 151.360527 
L 107.220455 145.215728 
L 107.869789 141.521429 
L 108.194485 140.632674 
L 108.519189 140.385781 
L 108.843891 140.771827 
L 109.168585 141.773325 
L 109.493262 143.364635 
L 110.142546 148.176615 
L 110.791715 154.86177 
L 111.765262 167.434618 
L 114.361134 203.677691 
L 115.334891 213.621477 
L 115.984189 218.154159 
L 116.63356 220.786222 
L 116.958261 221.363905 
L 117.282965 221.449566 
L 117.607668 221.051833 
L 117.932364 220.185832 
L 118.581723 217.139879 
L 119.231018 212.54781 
L 120.204836 203.456362 
L 123.45066 169.793755 
L 124.099955 165.203829 
L 124.749308 161.960416 
L 125.398699 160.189327 
L 125.723403 159.87202 
L 126.048107 159.931511 
L 126.37281 160.359827 
L 126.697508 161.144073 
L 127.346882 163.705863 
L 127.996216 167.427133 
L 128.970144 174.634973 
L 131.891804 198.522213 
L 132.865808 204.045357 
L 133.515186 206.443095 
L 133.839885 207.217607 
L 134.164587 207.701325 
L 134.489291 207.893459 
L 134.813996 207.797246 
L 135.138699 207.419828 
L 135.463399 206.772079 
L 136.112786 204.726346 
L 136.762149 201.812092 
L 137.736152 196.243405 
L 140.658106 178.210013 
L 141.307471 175.338051 
L 141.956856 173.236801 
L 142.606257 171.992092 
L 142.930961 171.704158 
L 143.255665 171.639927 
L 143.58037 171.796109 
L 143.905073 172.166445 
L 144.554473 173.5106 
L 145.203859 175.56931 
L 146.177913 179.688163 
L 149.74939 196.40062 
L 150.39878 198.291336 
L 151.048181 199.543561 
L 151.372884 199.915643 
L 151.697588 200.11542 
L 152.022293 200.14369 
L 152.346997 200.003591 
L 152.671701 199.700518 
L 153.321104 198.637557 
L 153.9705 197.037898 
L 154.944578 193.875956 
L 158.191479 182.225982 
L 158.840876 180.652937 
L 159.490278 179.551274 
L 160.139686 178.964011 
L 160.464391 178.868633 
L 160.789095 178.90458 
L 161.438504 179.357232 
L 162.087908 180.279025 
L 162.737308 181.603207 
L 163.711399 184.151842 
L 166.633658 192.548181 
L 167.607759 194.485034 
L 168.257164 195.326566 
L 168.906573 195.769996 
L 169.555982 195.808001 
L 170.205391 195.455549 
L 170.854797 194.74822 
L 171.828902 193.142816 
L 173.127701 190.367293 
L 175.075898 186.174434 
L 176.050003 184.616767 
L 176.69941 183.906545 
L 177.348819 183.495705 
L 177.998228 183.39633 
L 178.647637 183.603122 
L 179.297045 184.094369 
L 179.946452 184.833752 
L 180.920558 186.299684 
L 184.492276 192.204396 
L 185.466387 193.125013 
L 186.115796 193.452557 
L 186.765206 193.540418 
L 187.414615 193.394383 
L 188.064024 193.032711 
L 189.038135 192.152404 
L 190.336948 190.565557 
L 192.609868 187.731003 
L 193.58398 186.88093 
L 194.233389 186.515539 
L 194.882798 186.329857 
L 195.532208 186.328293 
L 196.181617 186.505089 
L 197.15573 187.069111 
L 198.129842 187.913681 
L 202.026286 191.719282 
L 203.000399 192.224533 
L 203.974513 192.418676 
L 204.948627 192.300316 
L 205.922741 191.905702 
L 207.221558 191.069558 
L 210.143895 188.965442 
L 211.118009 188.511068 
L 212.092123 188.280983 
L 213.066237 188.293992 
L 214.040351 188.538576 
L 215.339169 189.154826 
L 219.885031 191.721307 
L 220.859145 191.940035 
L 221.833259 191.971617 
L 223.132078 191.74436 
L 224.755601 191.149592 
L 227.677942 189.961912 
L 228.976761 189.678226 
L 230.275579 189.641993 
L 231.574398 189.850894 
L 233.197922 190.371266 
L 236.769672 191.653147 
L 238.068491 191.887 
L 239.36731 191.926273 
L 240.990834 191.728329 
L 244.237881 190.96841 
L 246.186109 190.671819 
L 247.809633 190.665026 
L 249.433156 190.878166 
L 252.355498 191.555449 
L 254.628431 191.98821 
L 256.57666 192.108858 
L 258.524888 191.990898 
L 264.369574 191.431615 
L 266.642507 191.581226 
L 274.110716 192.404044 
L 277.033058 192.283114 
L 281.25422 192.08118 
L 283.851858 192.185127 
L 292.294182 192.76096 
L 302.035324 192.77506 
L 309.178828 193.143931 
L 321.842314 193.369505 
L 327.686999 193.544866 
L 338.077551 193.733171 
L 346.19517 193.944516 
L 356.585722 194.164559 
L 366.976274 194.371461 
L 398.472635 195.022517 
L 398.472635 195.022517 
" style="fill:none;stroke:#ff7f0e;stroke-linecap:square;stroke-width:1.5;"/>
   </g>
   <g id="line2d_27">
    <path clip-path="url(#pa5b20f4e1d)" d="M 73.832727 53.568 
L 73.995078 53.790933 
L 74.319747 55.56304 
L 74.644318 59.050448 
L 75.130882 67.299464 
L 75.778902 83.315241 
L 76.587645 109.767446 
L 77.879491 160.673375 
L 79.656174 229.141526 
L 80.465434 253.209285 
L 81.113743 267.463782 
L 81.600406 274.843174 
L 82.08732 279.232477 
L 82.412006 280.477729 
L 82.574358 280.599571 
L 82.736709 280.391791 
L 83.061392 279.006684 
L 83.386021 276.371595 
L 83.872804 270.221944 
L 84.521454 258.37496 
L 85.331581 238.902376 
L 86.788506 196.738508 
L 88.407656 151.681805 
L 89.218108 134.265354 
L 89.866949 124.02354 
L 90.353807 118.777151 
L 90.840795 115.723634 
L 91.165491 114.918595 
L 91.327844 114.882288 
L 91.490195 115.086859 
L 91.814886 116.204061 
L 92.139546 118.233413 
L 92.626446 122.878922 
L 93.275433 131.727513 
L 94.086296 146.17248 
L 95.545158 177.278554 
L 97.004157 207.421904 
L 97.977387 223.090055 
L 98.626495 230.554724 
L 99.113447 234.362902 
L 99.600468 236.562248 
L 99.925168 237.126941 
L 100.087521 237.14128 
L 100.249872 236.979449 
L 100.574569 236.138263 
L 100.899249 234.630897 
L 101.386221 231.201551 
L 102.035402 224.695764 
L 102.846681 214.106426 
L 104.30662 191.379139 
L 105.766643 169.457403 
L 106.740295 158.134085 
L 107.38955 152.783398 
L 107.876554 150.08651 
L 108.363594 148.570059 
L 108.688297 148.219672 
L 108.850649 148.240665 
L 109.175352 148.667327 
L 109.500047 149.591741 
L 109.987067 151.858148 
L 110.636367 156.352886 
L 111.447885 163.882154 
L 112.746126 178.552319 
L 114.53122 198.545048 
L 115.505085 206.86661 
L 116.154411 210.793563 
L 116.64144 212.771205 
L 117.128488 213.882583 
L 117.453192 214.139357 
L 117.777896 214.014511 
L 118.102598 213.518643 
L 118.589641 212.114076 
L 119.076665 209.980833 
L 119.725996 206.161216 
L 120.69992 198.878932 
L 123.783928 174.307299 
L 124.595611 170.031974 
L 125.244993 167.7737 
L 125.732043 166.812435 
L 126.056747 166.526882 
L 126.381451 166.523319 
L 126.706155 166.795567 
L 127.193206 167.698745 
L 127.680248 169.152643 
L 128.329619 171.838574 
L 129.303634 177.088947 
L 132.712625 197.008008 
L 133.524349 199.949096 
L 134.173747 201.425752 
L 134.660801 201.990698 
L 134.985506 202.107274 
L 135.310211 202.0193 
L 135.634914 201.732818 
L 136.121967 200.950366 
L 136.771362 199.311979 
L 137.583089 196.481457 
L 138.719482 191.583574 
L 140.829923 182.371903 
L 141.641653 179.669331 
L 142.291049 178.077089 
L 142.940453 177.062277 
L 143.427509 176.699268 
L 143.914566 176.678481 
L 144.401622 176.989541 
L 144.888677 177.612369 
L 145.538077 178.876799 
L 146.349819 181.026376 
L 147.64859 185.269157 
L 149.596747 191.606468 
L 150.570841 193.971164 
L 151.220244 195.069531 
L 151.869651 195.7357 
L 152.356707 195.941905 
L 152.843764 195.899122 
L 153.330821 195.617711 
L 153.980228 194.901989 
L 154.791982 193.543786 
L 155.928429 191.043468 
L 158.526019 185.046687 
L 159.337773 183.70829 
L 159.987179 182.958698 
L 160.636588 182.526572 
L 161.123645 182.417633 
L 161.610702 182.490991 
L 162.26011 182.858118 
L 162.909518 183.502651 
L 163.721274 184.627966 
L 165.020079 186.898051 
L 167.130637 190.626808 
L 168.104746 191.896223 
L 168.916505 192.593725 
L 169.565914 192.887201 
L 170.215324 192.940632 
L 170.864733 192.76332 
L 171.676494 192.250522 
L 172.650605 191.294594 
L 174.111768 189.469449 
L 175.897635 187.306285 
L 176.871747 186.44747 
L 177.683508 185.997019 
L 178.495269 185.816882 
L 179.307031 185.909401 
L 180.118793 186.254193 
L 181.092905 186.943277 
L 182.554072 188.329534 
L 184.664646 190.360133 
L 185.801111 191.139057 
L 186.775224 191.522211 
L 187.586986 191.620791 
L 188.398748 191.523743 
L 189.372862 191.180242 
L 190.671679 190.442372 
L 193.918722 188.414872 
L 195.055189 188.027578 
L 196.029303 187.918109 
L 197.003417 188.018644 
L 198.139883 188.371076 
L 199.601053 189.084458 
L 202.685746 190.680897 
L 203.984564 191.064835 
L 205.121031 191.1787 
L 206.41985 191.060705 
L 207.881021 190.683238 
L 212.102181 189.415605 
L 213.401 189.312539 
L 214.862171 189.434682 
L 216.485695 189.811076 
L 221.193912 191.083826 
L 222.817436 191.20019 
L 224.603312 191.080724 
L 227.850359 190.551311 
L 229.96094 190.327629 
L 231.746816 190.346421 
L 233.857397 190.602762 
L 239.377377 191.422943 
L 241.650311 191.436927 
L 245.546768 191.161025 
L 248.306758 191.085045 
L 250.904396 191.238442 
L 258.210253 191.830701 
L 262.10671 191.757309 
L 266.327871 191.740491 
L 270.549033 191.991722 
L 275.581957 192.24702 
L 292.953661 192.675786 
L 398.482704 195.019492 
L 398.482704 195.019492 
" style="fill:none;stroke:#2ca02c;stroke-linecap:square;stroke-width:1.5;"/>
   </g>
   <g id="line2d_28">
    <path clip-path="url(#pa5b20f4e1d)" d="M 73.832727 53.568 
L 73.962608 53.710577 
L 74.157421 54.454946 
L 74.417132 56.416487 
L 74.806556 61.351524 
L 75.325402 71.377382 
L 75.973187 88.718424 
L 76.878644 119.786034 
L 80.368926 247.919146 
L 81.082005 263.983399 
L 81.666009 272.736774 
L 82.120474 276.656753 
L 82.445161 277.893527 
L 82.639983 278.016144 
L 82.834803 277.681534 
L 83.094549 276.539237 
L 83.419185 274.030257 
L 83.873544 268.618744 
L 84.457427 258.740839 
L 85.23537 241.412333 
L 86.466086 207.986627 
L 88.409336 155.319601 
L 89.317163 136.641145 
L 90.030982 126.273055 
L 90.550349 121.429201 
L 90.939955 119.3486 
L 91.264654 118.634959 
L 91.459476 118.646931 
L 91.654297 118.983318 
L 91.914048 119.925129 
L 92.30364 122.354026 
L 92.822998 127.354714 
L 93.471997 136.075814 
L 94.38022 151.800313 
L 98.012525 219.027702 
L 98.726575 226.821488 
L 99.310941 230.93743 
L 99.765504 232.664723 
L 100.090206 233.10556 
L 100.285029 233.057116 
L 100.54479 232.635038 
L 100.869482 231.550186 
L 101.32402 229.047256 
L 101.908353 224.303386 
L 102.687317 215.775458 
L 103.790611 200.861798 
L 106.062045 169.64674 
L 106.905968 161.010981 
L 107.620186 155.835237 
L 108.139675 153.44735 
L 108.529311 152.44671 
L 108.854015 152.131383 
L 109.113778 152.213816 
L 109.37354 152.586898 
L 109.763175 153.671461 
L 110.21773 155.68437 
L 110.802119 159.329356 
L 111.581229 165.693991 
L 112.814683 177.93376 
L 114.762248 197.178105 
L 115.671242 203.998921 
L 116.385521 207.789448 
L 116.905027 209.566225 
L 117.359608 210.416281 
L 117.684312 210.620222 
L 117.944076 210.545319 
L 118.268779 210.162199 
L 118.658418 209.295951 
L 119.177924 207.502243 
L 119.82728 204.36493 
L 120.73633 198.699719 
L 124.307519 174.822828 
L 125.021829 171.951656 
L 125.606283 170.417654 
L 126.060867 169.75845 
L 126.450512 169.567827 
L 126.775216 169.66868 
L 127.164861 170.090926 
L 127.619441 170.976097 
L 128.203892 172.676496 
L 128.983141 175.761566 
L 130.087043 181.201587 
L 132.489646 193.293202 
L 133.333838 196.405055 
L 134.048172 198.251761 
L 134.632635 199.165482 
L 135.087221 199.492594 
L 135.476866 199.507957 
L 135.866512 199.286125 
L 136.321096 198.743241 
L 136.905557 197.635748 
L 137.61989 195.752815 
L 138.658905 192.281035 
L 141.451247 182.547274 
L 142.295462 180.528184 
L 142.944866 179.478899 
L 143.464392 178.983785 
L 143.918978 178.807311 
L 144.373565 178.867461 
L 144.828151 179.155038 
L 145.412616 179.83448 
L 146.126959 181.07698 
L 147.036116 183.158605 
L 149.049235 188.55469 
L 150.283089 191.457854 
L 151.127312 192.932695 
L 151.841659 193.763235 
L 152.426127 194.133541 
L 152.945655 194.225849 
L 153.465182 194.10155 
L 154.04965 193.71979 
L 154.763997 192.946881 
L 155.673163 191.581916 
L 157.231728 188.730132 
L 158.790295 186.034827 
L 159.699462 184.857252 
L 160.478752 184.185349 
L 161.128161 183.891874 
L 161.77757 183.846771 
L 162.42698 184.041711 
L 163.141329 184.508439 
L 163.985558 185.343583 
L 165.154489 186.842139 
L 167.817052 190.351186 
L 168.791163 191.2258 
L 169.635394 191.687214 
L 170.414686 191.848551 
L 171.129036 191.776855 
L 171.908327 191.480288 
L 172.88244 190.847266 
L 174.246196 189.655795 
L 176.519123 187.671751 
L 177.558177 187.061193 
L 178.46735 186.769845 
L 179.311583 186.720032 
L 180.220756 186.896913 
L 181.194869 187.316736 
L 182.493687 188.138799 
L 185.80567 190.356771 
L 186.909665 190.77913 
L 187.94872 190.944213 
L 188.987776 190.883907 
L 190.156712 190.585407 
L 191.780235 189.912793 
L 194.442813 188.808329 
L 195.741631 188.52576 
L 196.975509 188.489283 
L 198.274328 188.688858 
L 199.832911 189.171697 
L 203.98913 190.586129 
L 205.41783 190.771156 
L 206.911472 190.733823 
L 208.729819 190.445122 
L 212.886039 189.696123 
L 214.574504 189.670831 
L 216.39285 189.8737 
L 219.510015 190.504672 
L 221.977771 190.89124 
L 223.990941 190.976945 
L 226.393756 190.838331 
L 231.069504 190.519002 
L 233.472319 190.624332 
L 237.433717 191.07738 
L 240.550883 191.32005 
L 243.603107 191.317607 
L 249.902379 191.242745 
L 254.0586 191.513187 
L 258.86423 191.770036 
L 264.773857 191.785189 
L 269.644428 191.927469 
L 278.736161 192.263449 
L 288.672126 192.496885 
L 298.153505 192.757002 
L 310.297463 193.083257 
L 347.508627 193.959589 
L 398.487273 195.017754 
L 398.487273 195.017754 
" style="fill:none;stroke:#d62728;stroke-linecap:square;stroke-width:1.5;"/>
   </g>
   <g id="patch_3">
    <path d="M 57.6 307.584 
L 57.6 41.472 
" style="fill:none;stroke:#000000;stroke-linecap:square;stroke-linejoin:miter;stroke-width:0.8;"/>
   </g>
   <g id="patch_4">
    <path d="M 414.72 307.584 
L 414.72 41.472 
" style="fill:none;stroke:#000000;stroke-linecap:square;stroke-linejoin:miter;stroke-width:0.8;"/>
   </g>
   <g id="patch_5">
    <path d="M 57.6 307.584 
L 414.72 307.584 
" style="fill:none;stroke:#000000;stroke-linecap:square;stroke-linejoin:miter;stroke-width:0.8;"/>
   </g>
   <g id="patch_6">
    <path d="M 57.6 41.472 
L 414.72 41.472 
" style="fill:none;stroke:#000000;stroke-linecap:square;stroke-linejoin:miter;stroke-width:0.8;"/>
   </g>
   <g id="legend_1">
    <g id="patch_7">
     <path d="M 313.82 108.1845 
L 407.72 108.1845 
Q 409.72 108.1845 409.72 106.1845 
L 409.72 48.472 
Q 409.72 46.472 407.72 46.472 
L 313.82 46.472 
Q 311.82 46.472 311.82 48.472 
L 311.82 106.1845 
Q 311.82 108.1845 313.82 108.1845 
z
" style="fill:#ffffff;opacity:0.8;stroke:#cccccc;stroke-linejoin:miter;"/>
    </g>
    <g id="line2d_29">
     <path d="M 315.82 54.570438 
L 335.82 54.570438 
" style="fill:none;stroke:#1f77b4;stroke-linecap:square;stroke-width:1.5;"/>
    </g>
    <g id="line2d_30"/>
    <g id="text_15">
     <!-- T$_s$ = 0.1 s -->
     <g transform="translate(343.82 58.070438)scale(0.1 -0.1)">
      <defs>
       <path d="M -0.296875 72.90625 
L 61.375 72.90625 
L 61.375 64.59375 
L 35.5 64.59375 
L 35.5 0 
L 25.59375 0 
L 25.59375 64.59375 
L -0.296875 64.59375 
z
" id="DejaVuSans-84"/>
       <path d="M 50 53.078125 
L 48.296875 44.578125 
Q 44.734375 46.53125 40.765625 47.5 
Q 36.8125 48.484375 32.625 48.484375 
Q 25.53125 48.484375 21.453125 46.0625 
Q 17.390625 43.65625 17.390625 39.5 
Q 17.390625 34.671875 26.859375 32.078125 
Q 27.59375 31.890625 27.9375 31.78125 
L 30.8125 30.90625 
Q 39.796875 28.421875 42.796875 25.6875 
Q 45.796875 22.953125 45.796875 18.21875 
Q 45.796875 9.515625 38.890625 4.046875 
Q 31.984375 -1.421875 20.796875 -1.421875 
Q 16.453125 -1.421875 11.671875 -0.578125 
Q 6.890625 0.25 1.125 2 
L 2.875 11.28125 
Q 7.8125 8.734375 12.59375 7.421875 
Q 17.390625 6.109375 21.78125 6.109375 
Q 28.375 6.109375 32.5 8.9375 
Q 36.625 11.765625 36.625 16.109375 
Q 36.625 20.796875 25.78125 23.6875 
L 24.859375 23.921875 
L 21.78125 24.703125 
Q 14.9375 26.515625 11.765625 29.46875 
Q 8.59375 32.421875 8.59375 37.015625 
Q 8.59375 45.75 15.15625 50.875 
Q 21.734375 56 33.015625 56 
Q 37.453125 56 41.671875 55.265625 
Q 45.90625 54.546875 50 53.078125 
z
" id="DejaVuSans-Oblique-115"/>
       <path d="M 10.59375 45.40625 
L 73.1875 45.40625 
L 73.1875 37.203125 
L 10.59375 37.203125 
z
M 10.59375 25.484375 
L 73.1875 25.484375 
L 73.1875 17.1875 
L 10.59375 17.1875 
z
" id="DejaVuSans-61"/>
      </defs>
      <use transform="translate(0 0.78125)" xlink:href="#DejaVuSans-84"/>
      <use transform="translate(62.041016 -15.625)scale(0.7)" xlink:href="#DejaVuSans-Oblique-115"/>
      <use transform="translate(101.245117 0.78125)" xlink:href="#DejaVuSans-32"/>
      <use transform="translate(133.032227 0.78125)" xlink:href="#DejaVuSans-61"/>
      <use transform="translate(216.821289 0.78125)" xlink:href="#DejaVuSans-32"/>
      <use transform="translate(248.608398 0.78125)" xlink:href="#DejaVuSans-48"/>
      <use transform="translate(312.231445 0.78125)" xlink:href="#DejaVuSans-46"/>
      <use transform="translate(344.018555 0.78125)" xlink:href="#DejaVuSans-49"/>
      <use transform="translate(407.641602 0.78125)" xlink:href="#DejaVuSans-32"/>
      <use transform="translate(439.428711 0.78125)" xlink:href="#DejaVuSans-115"/>
     </g>
    </g>
    <g id="line2d_31">
     <path d="M 315.82 69.248563 
L 335.82 69.248563 
" style="fill:none;stroke:#ff7f0e;stroke-linecap:square;stroke-width:1.5;"/>
    </g>
    <g id="line2d_32"/>
    <g id="text_16">
     <!-- T$_s$ = 0.05 s -->
     <g transform="translate(343.82 72.748563)scale(0.1 -0.1)">
      <use transform="translate(0 0.78125)" xlink:href="#DejaVuSans-84"/>
      <use transform="translate(62.041016 -15.625)scale(0.7)" xlink:href="#DejaVuSans-Oblique-115"/>
      <use transform="translate(101.245117 0.78125)" xlink:href="#DejaVuSans-32"/>
      <use transform="translate(133.032227 0.78125)" xlink:href="#DejaVuSans-61"/>
      <use transform="translate(216.821289 0.78125)" xlink:href="#DejaVuSans-32"/>
      <use transform="translate(248.608398 0.78125)" xlink:href="#DejaVuSans-48"/>
      <use transform="translate(312.231445 0.78125)" xlink:href="#DejaVuSans-46"/>
      <use transform="translate(344.018555 0.78125)" xlink:href="#DejaVuSans-48"/>
      <use transform="translate(407.641602 0.78125)" xlink:href="#DejaVuSans-53"/>
      <use transform="translate(471.264648 0.78125)" xlink:href="#DejaVuSans-32"/>
      <use transform="translate(503.051758 0.78125)" xlink:href="#DejaVuSans-115"/>
     </g>
    </g>
    <g id="line2d_33">
     <path d="M 315.82 83.926688 
L 335.82 83.926688 
" style="fill:none;stroke:#2ca02c;stroke-linecap:square;stroke-width:1.5;"/>
    </g>
    <g id="line2d_34"/>
    <g id="text_17">
     <!-- T$_s$ = 0.025 s -->
     <g transform="translate(343.82 87.426688)scale(0.1 -0.1)">
      <use transform="translate(0 0.78125)" xlink:href="#DejaVuSans-84"/>
      <use transform="translate(62.041016 -15.625)scale(0.7)" xlink:href="#DejaVuSans-Oblique-115"/>
      <use transform="translate(101.245117 0.78125)" xlink:href="#DejaVuSans-32"/>
      <use transform="translate(133.032227 0.78125)" xlink:href="#DejaVuSans-61"/>
      <use transform="translate(216.821289 0.78125)" xlink:href="#DejaVuSans-32"/>
      <use transform="translate(248.608398 0.78125)" xlink:href="#DejaVuSans-48"/>
      <use transform="translate(312.231445 0.78125)" xlink:href="#DejaVuSans-46"/>
      <use transform="translate(344.018555 0.78125)" xlink:href="#DejaVuSans-48"/>
      <use transform="translate(407.641602 0.78125)" xlink:href="#DejaVuSans-50"/>
      <use transform="translate(471.264648 0.78125)" xlink:href="#DejaVuSans-53"/>
      <use transform="translate(534.887695 0.78125)" xlink:href="#DejaVuSans-32"/>
      <use transform="translate(566.674805 0.78125)" xlink:href="#DejaVuSans-115"/>
     </g>
    </g>
    <g id="line2d_35">
     <path d="M 315.82 98.604813 
L 335.82 98.604813 
" style="fill:none;stroke:#d62728;stroke-linecap:square;stroke-width:1.5;"/>
    </g>
    <g id="line2d_36"/>
    <g id="text_18">
     <!-- T$_s$ = 0.01 s -->
     <g transform="translate(343.82 102.104813)scale(0.1 -0.1)">
      <use transform="translate(0 0.78125)" xlink:href="#DejaVuSans-84"/>
      <use transform="translate(62.041016 -15.625)scale(0.7)" xlink:href="#DejaVuSans-Oblique-115"/>
      <use transform="translate(101.245117 0.78125)" xlink:href="#DejaVuSans-32"/>
      <use transform="translate(133.032227 0.78125)" xlink:href="#DejaVuSans-61"/>
      <use transform="translate(216.821289 0.78125)" xlink:href="#DejaVuSans-32"/>
      <use transform="translate(248.608398 0.78125)" xlink:href="#DejaVuSans-48"/>
      <use transform="translate(312.231445 0.78125)" xlink:href="#DejaVuSans-46"/>
      <use transform="translate(344.018555 0.78125)" xlink:href="#DejaVuSans-48"/>
      <use transform="translate(407.641602 0.78125)" xlink:href="#DejaVuSans-49"/>
      <use transform="translate(471.264648 0.78125)" xlink:href="#DejaVuSans-32"/>
      <use transform="translate(503.051758 0.78125)" xlink:href="#DejaVuSans-115"/>
     </g>
    </g>
   </g>
  </g>
 </g>
 <defs>
  <clipPath id="pa5b20f4e1d">
   <rect height="266.112" width="357.12" x="57.6" y="41.472"/>
  </clipPath>
 </defs>
</svg>
