<?xml version="1.0" encoding="utf-8" standalone="no"?>
<!DOCTYPE svg PUBLIC "-//W3C//DTD SVG 1.1//EN"
  "http://www.w3.org/Graphics/SVG/1.1/DTD/svg11.dtd">
<!-- Created with matplotlib (https://matplotlib.org/) -->
<svg height="345.6pt" version="1.1" viewBox="0 0 460.8 345.6" width="460.8pt" xmlns="http://www.w3.org/2000/svg" xmlns:xlink="http://www.w3.org/1999/xlink">
 <metadata>
  <rdf:RDF xmlns:cc="http://creativecommons.org/ns#" xmlns:dc="http://purl.org/dc/elements/1.1/" xmlns:rdf="http://www.w3.org/1999/02/22-rdf-syntax-ns#">
   <cc:Work>
    <dc:type rdf:resource="http://purl.org/dc/dcmitype/StillImage"/>
    <dc:date>2020-10-25T16:32:41.258074</dc:date>
    <dc:format>image/svg+xml</dc:format>
    <dc:creator>
     <cc:Agent>
      <dc:title>Matplotlib v3.3.2, https://matplotlib.org/</dc:title>
     </cc:Agent>
    </dc:creator>
   </cc:Work>
  </rdf:RDF>
 </metadata>
 <defs>
  <style type="text/css">*{stroke-linecap:butt;stroke-linejoin:round;}</style>
 </defs>
 <g id="figure_1">
  <g id="patch_1">
   <path d="M 0 345.6 
L 460.8 345.6 
L 460.8 0 
L 0 0 
z
" style="fill:#ffffff;"/>
  </g>
  <g id="axes_1">
   <g id="patch_2">
    <path d="M 57.6 307.584 
L 414.72 307.584 
L 414.72 41.472 
L 57.6 41.472 
z
" style="fill:#ffffff;"/>
   </g>
   <g id="matplotlib.axis_1">
    <g id="xtick_1">
     <g id="line2d_1">
      <path clip-path="url(#p6a4f4617f1)" d="M 73.832727 307.584 
L 73.832727 41.472 
" style="fill:none;stroke:#b0b0b0;stroke-linecap:square;stroke-width:0.8;"/>
     </g>
     <g id="line2d_2">
      <defs>
       <path d="M 0 0 
L 0 3.5 
" id="m9e6a574e0d" style="stroke:#000000;stroke-width:0.8;"/>
      </defs>
      <g>
       <use style="stroke:#000000;stroke-width:0.8;" x="73.832727" xlink:href="#m9e6a574e0d" y="307.584"/>
      </g>
     </g>
     <g id="text_1">
      <!-- 0 -->
      <g transform="translate(70.651477 322.182437)scale(0.1 -0.1)">
       <defs>
        <path d="M 31.78125 66.40625 
Q 24.171875 66.40625 20.328125 58.90625 
Q 16.5 51.421875 16.5 36.375 
Q 16.5 21.390625 20.328125 13.890625 
Q 24.171875 6.390625 31.78125 6.390625 
Q 39.453125 6.390625 43.28125 13.890625 
Q 47.125 21.390625 47.125 36.375 
Q 47.125 51.421875 43.28125 58.90625 
Q 39.453125 66.40625 31.78125 66.40625 
z
M 31.78125 74.21875 
Q 44.046875 74.21875 50.515625 64.515625 
Q 56.984375 54.828125 56.984375 36.375 
Q 56.984375 17.96875 50.515625 8.265625 
Q 44.046875 -1.421875 31.78125 -1.421875 
Q 19.53125 -1.421875 13.0625 8.265625 
Q 6.59375 17.96875 6.59375 36.375 
Q 6.59375 54.828125 13.0625 64.515625 
Q 19.53125 74.21875 31.78125 74.21875 
z
" id="DejaVuSans-48"/>
       </defs>
       <use xlink:href="#DejaVuSans-48"/>
      </g>
     </g>
    </g>
    <g id="xtick_2">
     <g id="line2d_3">
      <path clip-path="url(#p6a4f4617f1)" d="M 138.779661 307.584 
L 138.779661 41.472 
" style="fill:none;stroke:#b0b0b0;stroke-linecap:square;stroke-width:0.8;"/>
     </g>
     <g id="line2d_4">
      <g>
       <use style="stroke:#000000;stroke-width:0.8;" x="138.779661" xlink:href="#m9e6a574e0d" y="307.584"/>
      </g>
     </g>
     <g id="text_2">
      <!-- 50 -->
      <g transform="translate(132.417161 322.182437)scale(0.1 -0.1)">
       <defs>
        <path d="M 10.796875 72.90625 
L 49.515625 72.90625 
L 49.515625 64.59375 
L 19.828125 64.59375 
L 19.828125 46.734375 
Q 21.96875 47.46875 24.109375 47.828125 
Q 26.265625 48.1875 28.421875 48.1875 
Q 40.625 48.1875 47.75 41.5 
Q 54.890625 34.8125 54.890625 23.390625 
Q 54.890625 11.625 47.5625 5.09375 
Q 40.234375 -1.421875 26.90625 -1.421875 
Q 22.3125 -1.421875 17.546875 -0.640625 
Q 12.796875 0.140625 7.71875 1.703125 
L 7.71875 11.625 
Q 12.109375 9.234375 16.796875 8.0625 
Q 21.484375 6.890625 26.703125 6.890625 
Q 35.15625 6.890625 40.078125 11.328125 
Q 45.015625 15.765625 45.015625 23.390625 
Q 45.015625 31 40.078125 35.4375 
Q 35.15625 39.890625 26.703125 39.890625 
Q 22.75 39.890625 18.8125 39.015625 
Q 14.890625 38.140625 10.796875 36.28125 
z
" id="DejaVuSans-53"/>
       </defs>
       <use xlink:href="#DejaVuSans-53"/>
       <use x="63.623047" xlink:href="#DejaVuSans-48"/>
      </g>
     </g>
    </g>
    <g id="xtick_3">
     <g id="line2d_5">
      <path clip-path="url(#p6a4f4617f1)" d="M 203.726594 307.584 
L 203.726594 41.472 
" style="fill:none;stroke:#b0b0b0;stroke-linecap:square;stroke-width:0.8;"/>
     </g>
     <g id="line2d_6">
      <g>
       <use style="stroke:#000000;stroke-width:0.8;" x="203.726594" xlink:href="#m9e6a574e0d" y="307.584"/>
      </g>
     </g>
     <g id="text_3">
      <!-- 100 -->
      <g transform="translate(194.182844 322.182437)scale(0.1 -0.1)">
       <defs>
        <path d="M 12.40625 8.296875 
L 28.515625 8.296875 
L 28.515625 63.921875 
L 10.984375 60.40625 
L 10.984375 69.390625 
L 28.421875 72.90625 
L 38.28125 72.90625 
L 38.28125 8.296875 
L 54.390625 8.296875 
L 54.390625 0 
L 12.40625 0 
z
" id="DejaVuSans-49"/>
       </defs>
       <use xlink:href="#DejaVuSans-49"/>
       <use x="63.623047" xlink:href="#DejaVuSans-48"/>
       <use x="127.246094" xlink:href="#DejaVuSans-48"/>
      </g>
     </g>
    </g>
    <g id="xtick_4">
     <g id="line2d_7">
      <path clip-path="url(#p6a4f4617f1)" d="M 268.673528 307.584 
L 268.673528 41.472 
" style="fill:none;stroke:#b0b0b0;stroke-linecap:square;stroke-width:0.8;"/>
     </g>
     <g id="line2d_8">
      <g>
       <use style="stroke:#000000;stroke-width:0.8;" x="268.673528" xlink:href="#m9e6a574e0d" y="307.584"/>
      </g>
     </g>
     <g id="text_4">
      <!-- 150 -->
      <g transform="translate(259.129778 322.182437)scale(0.1 -0.1)">
       <use xlink:href="#DejaVuSans-49"/>
       <use x="63.623047" xlink:href="#DejaVuSans-53"/>
       <use x="127.246094" xlink:href="#DejaVuSans-48"/>
      </g>
     </g>
    </g>
    <g id="xtick_5">
     <g id="line2d_9">
      <path clip-path="url(#p6a4f4617f1)" d="M 333.620461 307.584 
L 333.620461 41.472 
" style="fill:none;stroke:#b0b0b0;stroke-linecap:square;stroke-width:0.8;"/>
     </g>
     <g id="line2d_10">
      <g>
       <use style="stroke:#000000;stroke-width:0.8;" x="333.620461" xlink:href="#m9e6a574e0d" y="307.584"/>
      </g>
     </g>
     <g id="text_5">
      <!-- 200 -->
      <g transform="translate(324.076711 322.182437)scale(0.1 -0.1)">
       <defs>
        <path d="M 19.1875 8.296875 
L 53.609375 8.296875 
L 53.609375 0 
L 7.328125 0 
L 7.328125 8.296875 
Q 12.9375 14.109375 22.625 23.890625 
Q 32.328125 33.6875 34.8125 36.53125 
Q 39.546875 41.84375 41.421875 45.53125 
Q 43.3125 49.21875 43.3125 52.78125 
Q 43.3125 58.59375 39.234375 62.25 
Q 35.15625 65.921875 28.609375 65.921875 
Q 23.96875 65.921875 18.8125 64.3125 
Q 13.671875 62.703125 7.8125 59.421875 
L 7.8125 69.390625 
Q 13.765625 71.78125 18.9375 73 
Q 24.125 74.21875 28.421875 74.21875 
Q 39.75 74.21875 46.484375 68.546875 
Q 53.21875 62.890625 53.21875 53.421875 
Q 53.21875 48.921875 51.53125 44.890625 
Q 49.859375 40.875 45.40625 35.40625 
Q 44.1875 33.984375 37.640625 27.21875 
Q 31.109375 20.453125 19.1875 8.296875 
z
" id="DejaVuSans-50"/>
       </defs>
       <use xlink:href="#DejaVuSans-50"/>
       <use x="63.623047" xlink:href="#DejaVuSans-48"/>
       <use x="127.246094" xlink:href="#DejaVuSans-48"/>
      </g>
     </g>
    </g>
    <g id="xtick_6">
     <g id="line2d_11">
      <path clip-path="url(#p6a4f4617f1)" d="M 398.567394 307.584 
L 398.567394 41.472 
" style="fill:none;stroke:#b0b0b0;stroke-linecap:square;stroke-width:0.8;"/>
     </g>
     <g id="line2d_12">
      <g>
       <use style="stroke:#000000;stroke-width:0.8;" x="398.567394" xlink:href="#m9e6a574e0d" y="307.584"/>
      </g>
     </g>
     <g id="text_6">
      <!-- 250 -->
      <g transform="translate(389.023644 322.182437)scale(0.1 -0.1)">
       <use xlink:href="#DejaVuSans-50"/>
       <use x="63.623047" xlink:href="#DejaVuSans-53"/>
       <use x="127.246094" xlink:href="#DejaVuSans-48"/>
      </g>
     </g>
    </g>
    <g id="text_7">
     <!-- x Position (m) -->
     <g transform="translate(201.786563 335.860562)scale(0.1 -0.1)">
      <defs>
       <path d="M 54.890625 54.6875 
L 35.109375 28.078125 
L 55.90625 0 
L 45.3125 0 
L 29.390625 21.484375 
L 13.484375 0 
L 2.875 0 
L 24.125 28.609375 
L 4.6875 54.6875 
L 15.28125 54.6875 
L 29.78125 35.203125 
L 44.28125 54.6875 
z
" id="DejaVuSans-120"/>
       <path id="DejaVuSans-32"/>
       <path d="M 19.671875 64.796875 
L 19.671875 37.40625 
L 32.078125 37.40625 
Q 38.96875 37.40625 42.71875 40.96875 
Q 46.484375 44.53125 46.484375 51.125 
Q 46.484375 57.671875 42.71875 61.234375 
Q 38.96875 64.796875 32.078125 64.796875 
z
M 9.8125 72.90625 
L 32.078125 72.90625 
Q 44.34375 72.90625 50.609375 67.359375 
Q 56.890625 61.8125 56.890625 51.125 
Q 56.890625 40.328125 50.609375 34.8125 
Q 44.34375 29.296875 32.078125 29.296875 
L 19.671875 29.296875 
L 19.671875 0 
L 9.8125 0 
z
" id="DejaVuSans-80"/>
       <path d="M 30.609375 48.390625 
Q 23.390625 48.390625 19.1875 42.75 
Q 14.984375 37.109375 14.984375 27.296875 
Q 14.984375 17.484375 19.15625 11.84375 
Q 23.34375 6.203125 30.609375 6.203125 
Q 37.796875 6.203125 41.984375 11.859375 
Q 46.1875 17.53125 46.1875 27.296875 
Q 46.1875 37.015625 41.984375 42.703125 
Q 37.796875 48.390625 30.609375 48.390625 
z
M 30.609375 56 
Q 42.328125 56 49.015625 48.375 
Q 55.71875 40.765625 55.71875 27.296875 
Q 55.71875 13.875 49.015625 6.21875 
Q 42.328125 -1.421875 30.609375 -1.421875 
Q 18.84375 -1.421875 12.171875 6.21875 
Q 5.515625 13.875 5.515625 27.296875 
Q 5.515625 40.765625 12.171875 48.375 
Q 18.84375 56 30.609375 56 
z
" id="DejaVuSans-111"/>
       <path d="M 44.28125 53.078125 
L 44.28125 44.578125 
Q 40.484375 46.53125 36.375 47.5 
Q 32.28125 48.484375 27.875 48.484375 
Q 21.1875 48.484375 17.84375 46.4375 
Q 14.5 44.390625 14.5 40.28125 
Q 14.5 37.15625 16.890625 35.375 
Q 19.28125 33.59375 26.515625 31.984375 
L 29.59375 31.296875 
Q 39.15625 29.25 43.1875 25.515625 
Q 47.21875 21.78125 47.21875 15.09375 
Q 47.21875 7.46875 41.1875 3.015625 
Q 35.15625 -1.421875 24.609375 -1.421875 
Q 20.21875 -1.421875 15.453125 -0.5625 
Q 10.6875 0.296875 5.421875 2 
L 5.421875 11.28125 
Q 10.40625 8.6875 15.234375 7.390625 
Q 20.0625 6.109375 24.8125 6.109375 
Q 31.15625 6.109375 34.5625 8.28125 
Q 37.984375 10.453125 37.984375 14.40625 
Q 37.984375 18.0625 35.515625 20.015625 
Q 33.0625 21.96875 24.703125 23.78125 
L 21.578125 24.515625 
Q 13.234375 26.265625 9.515625 29.90625 
Q 5.8125 33.546875 5.8125 39.890625 
Q 5.8125 47.609375 11.28125 51.796875 
Q 16.75 56 26.8125 56 
Q 31.78125 56 36.171875 55.265625 
Q 40.578125 54.546875 44.28125 53.078125 
z
" id="DejaVuSans-115"/>
       <path d="M 9.421875 54.6875 
L 18.40625 54.6875 
L 18.40625 0 
L 9.421875 0 
z
M 9.421875 75.984375 
L 18.40625 75.984375 
L 18.40625 64.59375 
L 9.421875 64.59375 
z
" id="DejaVuSans-105"/>
       <path d="M 18.3125 70.21875 
L 18.3125 54.6875 
L 36.8125 54.6875 
L 36.8125 47.703125 
L 18.3125 47.703125 
L 18.3125 18.015625 
Q 18.3125 11.328125 20.140625 9.421875 
Q 21.96875 7.515625 27.59375 7.515625 
L 36.8125 7.515625 
L 36.8125 0 
L 27.59375 0 
Q 17.1875 0 13.234375 3.875 
Q 9.28125 7.765625 9.28125 18.015625 
L 9.28125 47.703125 
L 2.6875 47.703125 
L 2.6875 54.6875 
L 9.28125 54.6875 
L 9.28125 70.21875 
z
" id="DejaVuSans-116"/>
       <path d="M 54.890625 33.015625 
L 54.890625 0 
L 45.90625 0 
L 45.90625 32.71875 
Q 45.90625 40.484375 42.875 44.328125 
Q 39.84375 48.1875 33.796875 48.1875 
Q 26.515625 48.1875 22.3125 43.546875 
Q 18.109375 38.921875 18.109375 30.90625 
L 18.109375 0 
L 9.078125 0 
L 9.078125 54.6875 
L 18.109375 54.6875 
L 18.109375 46.1875 
Q 21.34375 51.125 25.703125 53.5625 
Q 30.078125 56 35.796875 56 
Q 45.21875 56 50.046875 50.171875 
Q 54.890625 44.34375 54.890625 33.015625 
z
" id="DejaVuSans-110"/>
       <path d="M 31 75.875 
Q 24.46875 64.65625 21.28125 53.65625 
Q 18.109375 42.671875 18.109375 31.390625 
Q 18.109375 20.125 21.3125 9.0625 
Q 24.515625 -2 31 -13.1875 
L 23.1875 -13.1875 
Q 15.875 -1.703125 12.234375 9.375 
Q 8.59375 20.453125 8.59375 31.390625 
Q 8.59375 42.28125 12.203125 53.3125 
Q 15.828125 64.359375 23.1875 75.875 
z
" id="DejaVuSans-40"/>
       <path d="M 52 44.1875 
Q 55.375 50.25 60.0625 53.125 
Q 64.75 56 71.09375 56 
Q 79.640625 56 84.28125 50.015625 
Q 88.921875 44.046875 88.921875 33.015625 
L 88.921875 0 
L 79.890625 0 
L 79.890625 32.71875 
Q 79.890625 40.578125 77.09375 44.375 
Q 74.3125 48.1875 68.609375 48.1875 
Q 61.625 48.1875 57.5625 43.546875 
Q 53.515625 38.921875 53.515625 30.90625 
L 53.515625 0 
L 44.484375 0 
L 44.484375 32.71875 
Q 44.484375 40.625 41.703125 44.40625 
Q 38.921875 48.1875 33.109375 48.1875 
Q 26.21875 48.1875 22.15625 43.53125 
Q 18.109375 38.875 18.109375 30.90625 
L 18.109375 0 
L 9.078125 0 
L 9.078125 54.6875 
L 18.109375 54.6875 
L 18.109375 46.1875 
Q 21.1875 51.21875 25.484375 53.609375 
Q 29.78125 56 35.6875 56 
Q 41.65625 56 45.828125 52.96875 
Q 50 49.953125 52 44.1875 
z
" id="DejaVuSans-109"/>
       <path d="M 8.015625 75.875 
L 15.828125 75.875 
Q 23.140625 64.359375 26.78125 53.3125 
Q 30.421875 42.28125 30.421875 31.390625 
Q 30.421875 20.453125 26.78125 9.375 
Q 23.140625 -1.703125 15.828125 -13.1875 
L 8.015625 -13.1875 
Q 14.5 -2 17.703125 9.0625 
Q 20.90625 20.125 20.90625 31.390625 
Q 20.90625 42.671875 17.703125 53.65625 
Q 14.5 64.65625 8.015625 75.875 
z
" id="DejaVuSans-41"/>
      </defs>
      <use xlink:href="#DejaVuSans-120"/>
      <use x="59.179688" xlink:href="#DejaVuSans-32"/>
      <use x="90.966797" xlink:href="#DejaVuSans-80"/>
      <use x="147.644531" xlink:href="#DejaVuSans-111"/>
      <use x="208.826172" xlink:href="#DejaVuSans-115"/>
      <use x="260.925781" xlink:href="#DejaVuSans-105"/>
      <use x="288.708984" xlink:href="#DejaVuSans-116"/>
      <use x="327.917969" xlink:href="#DejaVuSans-105"/>
      <use x="355.701172" xlink:href="#DejaVuSans-111"/>
      <use x="416.882812" xlink:href="#DejaVuSans-110"/>
      <use x="480.261719" xlink:href="#DejaVuSans-32"/>
      <use x="512.048828" xlink:href="#DejaVuSans-40"/>
      <use x="551.0625" xlink:href="#DejaVuSans-109"/>
      <use x="648.474609" xlink:href="#DejaVuSans-41"/>
     </g>
    </g>
   </g>
   <g id="matplotlib.axis_2">
    <g id="ytick_1">
     <g id="line2d_13">
      <path clip-path="url(#p6a4f4617f1)" d="M 57.6 305.401725 
L 414.72 305.401725 
" style="fill:none;stroke:#b0b0b0;stroke-linecap:square;stroke-width:0.8;"/>
     </g>
     <g id="line2d_14">
      <defs>
       <path d="M 0 0 
L -3.5 0 
" id="m3cbb320507" style="stroke:#000000;stroke-width:0.8;"/>
      </defs>
      <g>
       <use style="stroke:#000000;stroke-width:0.8;" x="57.6" xlink:href="#m3cbb320507" y="305.401725"/>
      </g>
     </g>
     <g id="text_8">
      <!-- −1.5 -->
      <g transform="translate(26.317187 309.200944)scale(0.1 -0.1)">
       <defs>
        <path d="M 10.59375 35.5 
L 73.1875 35.5 
L 73.1875 27.203125 
L 10.59375 27.203125 
z
" id="DejaVuSans-8722"/>
        <path d="M 10.6875 12.40625 
L 21 12.40625 
L 21 0 
L 10.6875 0 
z
" id="DejaVuSans-46"/>
       </defs>
       <use xlink:href="#DejaVuSans-8722"/>
       <use x="83.789062" xlink:href="#DejaVuSans-49"/>
       <use x="147.412109" xlink:href="#DejaVuSans-46"/>
       <use x="179.199219" xlink:href="#DejaVuSans-53"/>
      </g>
     </g>
    </g>
    <g id="ytick_2">
     <g id="line2d_15">
      <path clip-path="url(#p6a4f4617f1)" d="M 57.6 263.193316 
L 414.72 263.193316 
" style="fill:none;stroke:#b0b0b0;stroke-linecap:square;stroke-width:0.8;"/>
     </g>
     <g id="line2d_16">
      <g>
       <use style="stroke:#000000;stroke-width:0.8;" x="57.6" xlink:href="#m3cbb320507" y="263.193316"/>
      </g>
     </g>
     <g id="text_9">
      <!-- −1.0 -->
      <g transform="translate(26.317187 266.992535)scale(0.1 -0.1)">
       <use xlink:href="#DejaVuSans-8722"/>
       <use x="83.789062" xlink:href="#DejaVuSans-49"/>
       <use x="147.412109" xlink:href="#DejaVuSans-46"/>
       <use x="179.199219" xlink:href="#DejaVuSans-48"/>
      </g>
     </g>
    </g>
    <g id="ytick_3">
     <g id="line2d_17">
      <path clip-path="url(#p6a4f4617f1)" d="M 57.6 220.984908 
L 414.72 220.984908 
" style="fill:none;stroke:#b0b0b0;stroke-linecap:square;stroke-width:0.8;"/>
     </g>
     <g id="line2d_18">
      <g>
       <use style="stroke:#000000;stroke-width:0.8;" x="57.6" xlink:href="#m3cbb320507" y="220.984908"/>
      </g>
     </g>
     <g id="text_10">
      <!-- −0.5 -->
      <g transform="translate(26.317187 224.784127)scale(0.1 -0.1)">
       <use xlink:href="#DejaVuSans-8722"/>
       <use x="83.789062" xlink:href="#DejaVuSans-48"/>
       <use x="147.412109" xlink:href="#DejaVuSans-46"/>
       <use x="179.199219" xlink:href="#DejaVuSans-53"/>
      </g>
     </g>
    </g>
    <g id="ytick_4">
     <g id="line2d_19">
      <path clip-path="url(#p6a4f4617f1)" d="M 57.6 178.776499 
L 414.72 178.776499 
" style="fill:none;stroke:#b0b0b0;stroke-linecap:square;stroke-width:0.8;"/>
     </g>
     <g id="line2d_20">
      <g>
       <use style="stroke:#000000;stroke-width:0.8;" x="57.6" xlink:href="#m3cbb320507" y="178.776499"/>
      </g>
     </g>
     <g id="text_11">
      <!-- 0.0 -->
      <g transform="translate(34.696875 182.575718)scale(0.1 -0.1)">
       <use xlink:href="#DejaVuSans-48"/>
       <use x="63.623047" xlink:href="#DejaVuSans-46"/>
       <use x="95.410156" xlink:href="#DejaVuSans-48"/>
      </g>
     </g>
    </g>
    <g id="ytick_5">
     <g id="line2d_21">
      <path clip-path="url(#p6a4f4617f1)" d="M 57.6 136.568091 
L 414.72 136.568091 
" style="fill:none;stroke:#b0b0b0;stroke-linecap:square;stroke-width:0.8;"/>
     </g>
     <g id="line2d_22">
      <g>
       <use style="stroke:#000000;stroke-width:0.8;" x="57.6" xlink:href="#m3cbb320507" y="136.568091"/>
      </g>
     </g>
     <g id="text_12">
      <!-- 0.5 -->
      <g transform="translate(34.696875 140.367309)scale(0.1 -0.1)">
       <use xlink:href="#DejaVuSans-48"/>
       <use x="63.623047" xlink:href="#DejaVuSans-46"/>
       <use x="95.410156" xlink:href="#DejaVuSans-53"/>
      </g>
     </g>
    </g>
    <g id="ytick_6">
     <g id="line2d_23">
      <path clip-path="url(#p6a4f4617f1)" d="M 57.6 94.359682 
L 414.72 94.359682 
" style="fill:none;stroke:#b0b0b0;stroke-linecap:square;stroke-width:0.8;"/>
     </g>
     <g id="line2d_24">
      <g>
       <use style="stroke:#000000;stroke-width:0.8;" x="57.6" xlink:href="#m3cbb320507" y="94.359682"/>
      </g>
     </g>
     <g id="text_13">
      <!-- 1.0 -->
      <g transform="translate(34.696875 98.158901)scale(0.1 -0.1)">
       <use xlink:href="#DejaVuSans-49"/>
       <use x="63.623047" xlink:href="#DejaVuSans-46"/>
       <use x="95.410156" xlink:href="#DejaVuSans-48"/>
      </g>
     </g>
    </g>
    <g id="ytick_7">
     <g id="line2d_25">
      <path clip-path="url(#p6a4f4617f1)" d="M 57.6 52.151274 
L 414.72 52.151274 
" style="fill:none;stroke:#b0b0b0;stroke-linecap:square;stroke-width:0.8;"/>
     </g>
     <g id="line2d_26">
      <g>
       <use style="stroke:#000000;stroke-width:0.8;" x="57.6" xlink:href="#m3cbb320507" y="52.151274"/>
      </g>
     </g>
     <g id="text_14">
      <!-- 1.5 -->
      <g transform="translate(34.696875 55.950492)scale(0.1 -0.1)">
       <use xlink:href="#DejaVuSans-49"/>
       <use x="63.623047" xlink:href="#DejaVuSans-46"/>
       <use x="95.410156" xlink:href="#DejaVuSans-53"/>
      </g>
     </g>
    </g>
    <g id="text_15">
     <!-- y Position (m) -->
     <g transform="translate(20.2375 208.901437)rotate(-90)scale(0.1 -0.1)">
      <defs>
       <path d="M 32.171875 -5.078125 
Q 28.375 -14.84375 24.75 -17.8125 
Q 21.140625 -20.796875 15.09375 -20.796875 
L 7.90625 -20.796875 
L 7.90625 -13.28125 
L 13.1875 -13.28125 
Q 16.890625 -13.28125 18.9375 -11.515625 
Q 21 -9.765625 23.484375 -3.21875 
L 25.09375 0.875 
L 2.984375 54.6875 
L 12.5 54.6875 
L 29.59375 11.921875 
L 46.6875 54.6875 
L 56.203125 54.6875 
z
" id="DejaVuSans-121"/>
      </defs>
      <use xlink:href="#DejaVuSans-121"/>
      <use x="59.179688" xlink:href="#DejaVuSans-32"/>
      <use x="90.966797" xlink:href="#DejaVuSans-80"/>
      <use x="147.644531" xlink:href="#DejaVuSans-111"/>
      <use x="208.826172" xlink:href="#DejaVuSans-115"/>
      <use x="260.925781" xlink:href="#DejaVuSans-105"/>
      <use x="288.708984" xlink:href="#DejaVuSans-116"/>
      <use x="327.917969" xlink:href="#DejaVuSans-105"/>
      <use x="355.701172" xlink:href="#DejaVuSans-111"/>
      <use x="416.882812" xlink:href="#DejaVuSans-110"/>
      <use x="480.261719" xlink:href="#DejaVuSans-32"/>
      <use x="512.048828" xlink:href="#DejaVuSans-40"/>
      <use x="551.0625" xlink:href="#DejaVuSans-109"/>
      <use x="648.474609" xlink:href="#DejaVuSans-41"/>
     </g>
    </g>
   </g>
   <g id="line2d_27">
    <path clip-path="url(#p6a4f4617f1)" d="M 73.832727 153.451454 
L 74.806929 153.333255 
L 75.781117 152.979172 
L 76.755279 152.390847 
L 77.891749 151.412197 
L 79.028147 150.12494 
L 80.326777 148.286828 
L 81.787568 145.770207 
L 83.24816 142.80501 
L 84.87079 139.023786 
L 86.817588 133.880536 
L 89.088384 127.172492 
L 91.845209 118.249126 
L 96.06083 103.713183 
L 100.763013 87.680259 
L 103.520077 79.074138 
L 105.628885 73.156946 
L 107.575879 68.337153 
L 109.19867 64.862608 
L 110.6594 62.199245 
L 112.120315 60.006055 
L 113.419038 58.471163 
L 114.555501 57.459556 
L 115.692022 56.764583 
L 116.666211 56.424595 
L 117.640413 56.322553 
L 118.614614 56.459055 
L 119.588801 56.833528 
L 120.562959 57.444233 
L 121.699424 58.451362 
L 122.835813 59.769466 
L 124.13443 61.645471 
L 125.595202 64.207688 
L 127.055771 67.221143 
L 128.678369 71.05846 
L 130.625123 76.271419 
L 132.895861 83.062374 
L 135.65261 92.085683 
L 140.030243 107.335299 
L 144.570189 122.928732 
L 147.165014 131.107758 
L 149.435998 137.541426 
L 151.38298 142.38113 
L 153.005766 145.864828 
L 154.466495 148.530524 
L 155.765079 150.5014 
L 157.063789 152.07889 
L 158.200246 153.125434 
L 159.336761 153.85292 
L 160.310948 154.21868 
L 161.28515 154.344424 
L 162.259351 154.229437 
L 163.233539 153.874186 
L 164.2077 153.280314 
L 165.344168 152.289695 
L 166.480561 150.984626 
L 167.779182 149.11915 
L 169.077658 146.870245 
L 170.538251 143.90616 
L 172.160873 140.11198 
L 174.107649 134.933718 
L 176.216218 128.66554 
L 178.81084 120.218887 
L 182.539929 107.222338 
L 188.376774 86.893171 
L 190.971558 78.659636 
L 193.080288 72.62615 
L 195.027225 67.709634 
L 196.649979 64.163699 
L 198.110684 61.444119 
L 199.571582 59.202975 
L 200.870295 57.632827 
L 202.006753 56.596322 
L 202.980908 55.964257 
L 203.955093 55.572264 
L 204.929293 55.422363 
L 205.903496 55.51539 
L 206.877685 55.850986 
L 207.851848 56.427604 
L 208.825971 57.242515 
L 209.96238 58.489153 
L 211.26102 60.293906 
L 212.559519 62.489055 
L 214.020136 65.401574 
L 215.642783 69.150187 
L 217.427365 73.837899 
L 219.535981 80.037456 
L 221.968482 87.901372 
L 225.373318 99.748278 
L 232.507066 124.802435 
L 235.101884 132.990374 
L 237.210664 138.950082 
L 238.995391 143.3965 
L 240.618169 146.897988 
L 242.078896 149.567723 
L 243.377481 151.532615 
L 244.676196 153.095155 
L 245.812657 154.121358 
L 246.786814 154.741938 
L 247.761 155.120053 
L 248.735201 155.253749 
L 249.709403 155.14227 
L 250.683591 154.786063 
L 251.65775 154.186776 
L 252.794216 153.184237 
L 253.930604 151.861289 
L 255.229215 149.968237 
L 256.527677 147.684366 
L 257.988247 144.67249 
L 259.610833 140.815329 
L 261.395343 136.01216 
L 263.503869 129.683994 
L 266.098409 121.131624 
L 269.665209 108.514319 
L 275.98812 86.08665 
L 278.582821 77.743673 
L 280.691507 71.644398 
L 282.638419 66.687026 
L 284.261163 63.122248 
L 285.721866 60.397776 
L 287.020435 58.386506 
L 288.319137 56.780154 
L 289.45559 55.718023 
L 290.429742 55.068629 
L 291.403926 54.663679 
L 292.378126 54.505261 
L 293.352329 54.594251 
L 294.326518 54.930314 
L 295.300681 55.511903 
L 296.274801 56.336264 
L 297.411206 57.599527 
L 298.709837 59.43053 
L 300.008322 61.659444 
L 301.468917 64.618563 
L 303.09153 68.429048 
L 304.876062 73.196118 
L 306.984603 79.502983 
L 309.416996 87.505844 
L 312.821654 99.566696 
L 319.955009 125.08932 
L 322.549707 133.435769 
L 324.658407 139.513292 
L 326.443082 144.049523 
L 328.065822 147.623468 
L 329.526524 150.350072 
L 330.825093 152.358345 
L 332.123798 153.957118 
L 333.260253 155.008908 
L 334.234407 155.646734 
L 335.208592 156.037676 
L 336.182793 156.179717 
L 337.156995 156.072058 
L 338.131182 155.715125 
L 339.105341 155.110568 
L 340.079457 154.261252 
L 341.215853 152.966524 
L 342.514472 151.096724 
L 343.812939 148.826308 
L 345.27351 145.817713 
L 346.896091 141.949439 
L 348.680581 137.116282 
L 350.789065 130.729355 
L 353.221385 122.633752 
L 356.625938 110.447556 
L 363.596963 85.260411 
L 366.191579 76.807435 
L 368.300219 70.642435 
L 370.084849 66.03314 
L 371.707555 62.394608 
L 373.168232 59.612123 
L 374.466785 57.556483 
L 375.765476 55.912947 
L 376.901923 54.824434 
L 377.876072 54.157143 
L 378.850254 53.738747 
L 379.824454 53.571401 
L 380.798657 53.656026 
L 381.772846 53.992312 
L 382.747008 54.578711 
L 383.721127 55.412447 
L 384.857526 56.692359 
L 385.993829 58.29506 
L 387.29232 60.508354 
L 388.752918 63.461852 
L 390.375526 67.280998 
L 392.16004 72.075578 
L 394.268541 78.438623 
L 396.700859 86.536531 
L 398.322134 92.270057 
L 398.322134 92.270057 
" style="fill:none;stroke:#1f77b4;stroke-linecap:square;stroke-width:1.5;"/>
   </g>
   <g id="line2d_28">
    <path clip-path="url(#p6a4f4617f1)" d="M 73.832727 153.451454 
L 74.806929 153.580787 
L 75.781114 153.965974 
L 76.755269 154.59812 
L 77.891729 155.627488 
L 79.190456 157.146923 
L 80.651415 159.21493 
L 82.761529 162.647697 
L 86.981711 169.625509 
L 88.605034 171.813896 
L 89.903797 173.197545 
L 91.040285 174.087298 
L 92.014458 174.586818 
L 92.988655 174.829775 
L 93.962858 174.809705 
L 94.937051 174.526563 
L 95.911219 173.986735 
L 96.885348 173.202893 
L 98.021769 172.005215 
L 99.320446 170.311699 
L 100.943664 167.815748 
L 103.702941 163.066611 
L 106.299959 158.727859 
L 107.923245 156.425348 
L 109.221982 154.942249 
L 110.358452 153.963185 
L 111.332616 153.387765 
L 112.306807 153.071474 
L 113.28101 153.022572 
L 114.092842 153.18753 
L 115.067022 153.628618 
L 116.041166 154.325018 
L 117.177608 155.437825 
L 118.476305 157.060401 
L 119.937223 159.249024 
L 122.047269 162.851631 
L 125.942706 169.584074 
L 127.565982 171.913876 
L 128.864717 173.406593 
L 130.001188 174.384745 
L 130.975352 174.952443 
L 131.949544 175.254786 
L 132.76138 175.298113 
L 133.573213 175.150479 
L 134.547394 174.724549 
L 135.52154 174.03681 
L 136.657982 172.925605 
L 137.956677 171.293585 
L 139.417585 169.080454 
L 141.527608 165.419251 
L 145.585298 158.269672 
L 147.208565 155.912768 
L 148.507297 154.41088 
L 149.643768 153.434234 
L 150.617933 152.874902 
L 151.592126 152.587261 
L 152.403962 152.56078 
L 153.215794 152.729144 
L 154.189972 153.184584 
L 155.164112 153.906213 
L 156.300544 155.061392 
L 157.599222 156.74773 
L 159.060107 159.024333 
L 161.170093 162.774827 
L 165.065411 169.791735 
L 166.688652 172.223096 
L 167.987368 173.782544 
L 169.123829 174.805945 
L 170.097989 175.40142 
L 171.07218 175.720627 
L 171.884016 175.76935 
L 172.695849 175.619121 
L 173.670028 175.179585 
L 174.64417 174.467093 
L 175.780602 173.313719 
L 177.079277 171.617695 
L 178.540153 169.315717 
L 180.650113 165.50437 
L 184.707674 158.052715 
L 186.330904 155.592949 
L 187.629617 154.0238 
L 188.766079 153.001834 
L 189.74024 152.41496 
L 190.714432 152.110959 
L 191.526268 152.079699 
L 192.3381 152.251443 
L 193.149916 152.623617 
L 194.124059 153.326135 
L 195.098149 154.291878 
L 196.234507 155.720151 
L 197.695406 157.960176 
L 199.480772 161.146424 
L 204.999027 171.336309 
L 206.459984 173.409112 
L 207.596387 174.675496 
L 208.570511 175.483475 
L 209.54468 176.013624 
L 210.356509 176.23321 
L 211.168345 176.246262 
L 211.980176 176.052205 
L 212.791989 175.653986 
L 213.766126 174.915905 
L 214.902547 173.718812 
L 216.201201 171.956321 
L 217.662042 169.561974 
L 219.60964 165.912476 
L 223.991665 157.549588 
L 225.452546 155.260784 
L 226.751238 153.621352 
L 227.887689 152.55196 
L 228.861846 151.936196 
L 229.67367 151.647583 
L 230.485505 151.568869 
L 231.297339 151.701749 
L 232.109158 152.044325 
L 233.083305 152.724275 
L 234.057397 153.682109 
L 235.193752 155.119955 
L 236.492322 157.127207 
L 238.11537 160.054237 
L 241.198896 166.207919 
L 243.47107 170.516166 
L 244.931923 172.87774 
L 246.230596 174.579752 
L 247.367036 175.700039 
L 248.341187 176.355194 
L 249.153008 176.672899 
L 249.964843 176.776773 
L 250.776677 176.664688 
L 251.588497 176.338181 
L 252.562646 175.670887 
L 253.536739 174.71818 
L 254.673093 173.276623 
L 255.971657 171.252506 
L 257.594688 168.286555 
L 260.353584 162.67988 
L 262.950281 157.594988 
L 264.573429 154.915819 
L 265.872099 153.202948 
L 267.008539 152.083924 
L 267.982691 151.437851 
L 268.794514 151.133211 
L 269.606349 151.047174 
L 270.418182 151.181576 
L 271.23 151.534505 
L 272.204143 152.238302 
L 273.178226 153.231901 
L 274.314564 154.725388 
L 275.613105 156.812311 
L 277.236101 159.857966 
L 280.319503 166.267348 
L 282.591593 170.759396 
L 284.052406 173.224051 
L 285.351055 175.002176 
L 286.487482 176.174302 
L 287.461627 176.861499 
L 288.273447 177.196533 
L 289.085281 177.308876 
L 289.897115 177.196241 
L 290.708935 176.860159 
L 291.520726 176.305963 
L 292.494822 175.366005 
L 293.631174 173.919349 
L 294.929726 171.86328 
L 296.552723 168.820294 
L 299.149237 163.351992 
L 301.908091 157.661041 
L 303.53117 154.811611 
L 304.829797 152.96663 
L 305.96621 151.739924 
L 306.940349 151.010316 
L 307.752165 150.643829 
L 308.563998 150.504148 
L 309.375833 150.594031 
L 310.187654 150.912343 
L 310.999448 151.454062 
L 311.973545 152.386335 
L 313.109897 153.83431 
L 314.408443 155.905393 
L 316.031423 158.986419 
L 318.465612 164.197132 
L 321.386672 170.383656 
L 323.009714 173.32089 
L 324.308318 175.234354 
L 325.444717 176.517146 
L 326.418847 177.290479 
L 327.23066 177.689505 
L 328.042492 177.857582 
L 328.854327 177.791461 
L 329.66615 177.491868 
L 330.477945 176.963496 
L 331.452045 176.039825 
L 332.588396 174.591399 
L 333.886937 172.505993 
L 335.347613 169.719606 
L 337.457228 165.174172 
L 341.189609 157.103798 
L 342.812659 154.185611 
L 344.111277 152.315804 
L 345.247691 151.090466 
L 346.221832 150.379233 
L 347.033651 150.039896 
L 347.845486 149.937664 
L 348.657319 150.074678 
L 349.469135 150.449016 
L 350.280917 151.054718 
L 351.254994 152.072756 
L 352.391312 153.630527 
L 353.689806 155.835464 
L 355.312706 159.087867 
L 357.909037 164.911465 
L 360.667717 170.947301 
L 362.290728 173.956967 
L 363.589321 175.897728 
L 364.72572 177.180877 
L 365.699853 177.93694 
L 366.511669 178.309454 
L 367.323502 178.440448 
L 368.135336 178.327285 
L 368.947154 177.971474 
L 369.758939 177.37865 
L 370.733018 176.368298 
L 371.869334 174.808547 
L 373.167822 172.586996 
L 374.790702 169.29339 
L 377.224714 163.742673 
L 380.145578 157.179418 
L 381.768547 154.076355 
L 383.067115 152.062904 
L 384.203497 150.720336 
L 385.177621 149.918044 
L 385.989433 149.511199 
L 386.801265 149.350319 
L 387.6131 149.438556 
L 388.42492 149.774835 
L 389.236707 150.353859 
L 390.210788 151.355557 
L 391.347104 152.916374 
L 392.645585 155.153817 
L 394.10617 158.133444 
L 396.377886 163.364515 
L 398.487273 168.339607 
L 398.487273 168.339607 
" style="fill:none;stroke:#ff7f0e;stroke-linecap:square;stroke-width:1.5;"/>
   </g>
   <g id="line2d_29">
    <path clip-path="url(#p6a4f4617f1)" d="M 73.832727 153.451454 
L 74.319825 153.561261 
L 74.8069 153.889623 
L 75.456259 154.660825 
L 76.105491 155.798084 
L 76.916798 157.697419 
L 77.889979 160.592155 
L 79.186924 165.262591 
L 81.617659 175.16755 
L 83.400644 181.945697 
L 84.535927 185.454597 
L 85.50949 187.741632 
L 86.321073 189.049522 
L 86.97047 189.669618 
L 87.45756 189.875803 
L 87.944661 189.856512 
L 88.431748 189.611519 
L 88.918795 189.143378 
L 89.568094 188.181616 
L 90.379498 186.466384 
L 91.352789 183.73265 
L 92.487728 179.78068 
L 94.108249 173.213076 
L 97.025083 161.287567 
L 98.160179 157.532229 
L 99.133613 155.023439 
L 99.94512 153.531563 
L 100.594482 152.769334 
L 101.081559 152.461553 
L 101.568659 152.384944 
L 102.055754 152.540923 
L 102.542818 152.928045 
L 103.192148 153.795947 
L 103.841329 155.04896 
L 104.652539 157.115965 
L 105.625554 160.238063 
L 106.922207 165.237754 
L 111.783594 185.068395 
L 112.756882 187.804414 
L 113.568302 189.486595 
L 114.217618 190.397022 
L 114.867039 190.897225 
L 115.354137 190.995573 
L 115.841233 190.854505 
L 116.328299 190.475268 
L 116.977629 189.606775 
L 117.626803 188.34048 
L 118.437992 186.23946 
L 119.410957 183.052552 
L 120.707498 177.931054 
L 123.461313 165.696252 
L 125.081863 159.163298 
L 126.217028 155.49921 
L 127.02828 153.505452 
L 127.839829 152.112288 
L 128.489219 151.46422 
L 128.97631 151.261074 
L 129.46341 151.304025 
L 129.950491 151.593047 
L 130.437523 152.125086 
L 131.086778 153.201614 
L 131.898083 155.104278 
L 132.871176 158.11896 
L 134.005779 162.458549 
L 135.625681 169.64255 
L 138.379385 181.973671 
L 139.514126 186.157694 
L 140.487348 188.990778 
L 141.298749 190.710041 
L 141.948064 191.620323 
L 142.435127 192.017147 
L 142.922222 192.162656 
L 143.40932 192.054546 
L 143.896389 191.693628 
L 144.545719 190.826382 
L 145.194881 189.534802 
L 146.006027 187.365681 
L 146.978886 184.046644 
L 148.275186 178.674289 
L 150.542388 168.002899 
L 152.324204 160.032182 
L 153.458918 155.818737 
L 154.432153 153.004853 
L 155.243576 151.332499 
L 155.89291 150.478985 
L 156.379982 150.135214 
L 156.867081 150.051045 
L 157.354174 150.228046 
L 157.841228 150.664569 
L 158.49052 151.641469 
L 159.139625 153.050623 
L 159.95067 155.373953 
L 160.923372 158.881738 
L 162.219428 164.496965 
L 167.078307 186.755501 
L 168.051359 189.824571 
L 168.862672 191.710647 
L 169.511949 192.730589 
L 169.998997 193.194118 
L 170.486088 193.39205 
L 170.973187 193.321401 
L 171.46026 192.982493 
L 171.947272 192.378956 
L 172.596474 191.174973 
L 173.407656 189.065313 
L 174.380511 185.741683 
L 175.514709 180.977314 
L 177.295748 172.300677 
L 179.886366 159.700269 
L 181.020792 155.171191 
L 181.993856 152.118857 
L 182.805193 150.279578 
L 183.45449 149.317601 
L 183.94155 148.908762 
L 184.428646 148.77442 
L 184.915742 148.916795 
L 185.4028 149.334697 
L 185.889785 150.023535 
L 186.538931 151.349254 
L 187.35001 153.620197 
L 188.322698 157.143483 
L 189.456663 162.136919 
L 191.23733 171.13058 
L 193.665638 183.283304 
L 194.799904 187.978033 
L 195.772872 191.156056 
L 196.584161 193.08376 
L 197.233437 194.103535 
L 197.720489 194.547295 
L 198.207584 194.708826 
L 198.69468 194.585557 
L 199.18174 194.178428 
L 199.668726 193.49188 
L 200.317867 192.155965 
L 201.128923 189.851319 
L 202.10155 186.258408 
L 203.235391 181.147872 
L 205.015763 171.910643 
L 207.443608 159.373662 
L 208.577703 154.507849 
L 209.550568 151.199641 
L 210.361803 149.180048 
L 211.011056 148.099978 
L 211.4981 147.619622 
L 211.985192 147.429419 
L 212.47229 147.532312 
L 212.959352 147.927629 
L 213.446339 148.611088 
L 214.095474 149.956528 
L 214.906508 152.29469 
L 215.879072 155.957961 
L 217.012784 161.187725 
L 218.792844 170.674267 
L 221.220199 183.606512 
L 222.516183 189.285163 
L 223.489063 192.573134 
L 224.300328 194.540092 
L 224.949606 195.555741 
L 225.436663 195.975608 
L 225.92376 196.095678 
L 226.410852 195.913854 
L 226.897896 195.431766 
L 227.384849 194.654753 
L 228.033916 193.176011 
L 228.844824 190.661566 
L 229.817188 186.78053 
L 230.950622 181.301529 
L 232.891987 170.548774 
L 235.157225 158.250825 
L 236.291093 153.168731 
L 237.263862 149.744488 
L 238.075071 147.681954 
L 238.724324 146.604072 
L 239.211373 146.146777 
L 239.698468 145.997752 
L 240.185562 146.159469 
L 240.672608 146.630565 
L 241.159562 147.405849 
L 241.808622 148.89674 
L 242.619502 151.449197 
L 243.591792 155.407562 
L 244.725075 161.015646 
L 246.50434 171.112873 
L 248.930774 184.752624 
L 250.064441 190.020716 
L 251.037089 193.586131 
L 251.848237 195.748008 
L 252.497463 196.890838 
L 252.984504 197.387376 
L 253.471596 197.566961 
L 253.958691 197.426721 
L 254.44574 196.967738 
L 254.932694 196.195036 
L 255.581748 194.692703 
L 256.392599 192.102403 
L 257.364812 188.065868 
L 258.497939 182.326338 
L 260.27683 171.955765 
L 262.702682 157.884734 
L 263.836133 152.424541 
L 264.808652 148.712896 
L 265.619732 146.447774 
L 266.268929 145.237183 
L 266.755959 144.69951 
L 267.243048 144.487693 
L 267.730144 144.605021 
L 268.217196 145.050715 
L 268.704152 145.819931 
L 269.353199 147.332944 
L 270.164021 149.960867 
L 271.136155 154.076387 
L 272.269119 159.949738 
L 274.047618 170.60009 
L 276.47285 185.114739 
L 277.768067 191.487148 
L 278.740604 195.176122 
L 279.551723 197.382202 
L 280.200951 198.520502 
L 280.687997 198.990286 
L 281.175092 199.123385 
L 281.662181 198.91746 
L 282.149209 198.374367 
L 282.636124 197.500144 
L 283.285084 195.837522 
L 284.095748 193.011784 
L 285.06763 188.651956 
L 286.200243 182.499065 
L 288.13977 170.427834 
L 290.402951 156.625417 
L 291.536118 150.922354 
L 292.508514 147.080283 
L 293.319561 144.76679 
L 293.968759 143.558524 
L 294.455795 143.046652 
L 294.942888 142.880984 
L 295.267619 142.964416 
L 295.754677 143.37976 
L 296.241636 144.139078 
L 296.890673 145.670927 
L 297.701435 148.373226 
L 298.673404 152.649041 
L 299.806021 158.797211 
L 301.422132 168.964802 
L 304.169285 186.399988 
L 305.302198 192.311925 
L 306.274443 196.312604 
L 307.085412 198.737761 
L 307.734576 200.019053 
L 308.221601 200.575064 
L 308.70869 200.775115 
L 309.033423 200.708958 
L 309.520483 200.310802 
L 310.007445 199.55801 
L 310.656477 198.01813 
L 311.30512 195.895782 
L 312.115259 192.493445 
L 313.086376 187.464698 
L 314.379599 179.560565 
L 318.742422 151.714325 
L 319.714118 147.184374 
L 320.524723 144.28961 
L 321.173681 142.625356 
L 321.822946 141.582517 
L 322.310014 141.22357 
L 322.634748 141.189096 
L 322.959475 141.319098 
L 323.446513 141.821166 
L 323.933431 142.686502 
L 324.582367 144.387465 
L 325.392921 147.340478 
L 326.364513 151.963411 
L 327.496533 158.558783 
L 329.273065 170.514644 
L 331.695622 186.804948 
L 332.989871 193.956493 
L 333.961976 198.096175 
L 334.772908 200.57124 
L 335.422074 201.847675 
L 335.909106 202.373811 
L 336.396199 202.52182 
L 336.720928 202.408936 
L 337.20797 201.923257 
L 337.69489 201.062978 
L 338.343818 199.351021 
L 339.154336 196.356148 
L 340.125825 191.643739 
L 341.257631 184.895569 
L 343.033643 172.618524 
L 345.616991 154.804137 
L 346.749272 148.403613 
L 347.721199 144.091872 
L 348.532042 141.496017 
L 349.181169 140.140863 
L 349.668188 139.567353 
L 350.155279 139.382661 
L 350.480009 139.477274 
L 350.967055 139.94509 
L 351.453977 140.799162 
L 352.102899 142.521105 
L 352.751351 144.875577 
L 353.56112 148.63068 
L 354.531594 154.158507 
L 355.985066 163.969997 
L 359.859132 191.24866 
L 360.991887 197.281001 
L 361.802127 200.577528 
L 362.450905 202.514855 
L 363.100075 203.781013 
L 363.587115 204.27167 
L 363.911845 204.37592 
L 364.236577 204.300785 
L 364.561287 204.046436 
L 365.048261 203.3317 
L 365.535063 202.224659 
L 366.183749 200.161432 
L 366.993829 196.702615 
L 367.96462 191.417978 
L 369.256875 182.875687 
L 371.515011 165.931458 
L 373.2904 153.285833 
L 374.422294 146.603774 
L 375.394061 142.143863 
L 376.204862 139.496578 
L 376.853992 138.149168 
L 377.34102 137.610072 
L 377.665748 137.479845 
L 377.99048 137.534238 
L 378.315193 137.773203 
L 378.802172 138.475096 
L 379.288973 139.581719 
L 379.937645 141.66372 
L 380.747669 145.176422 
L 381.71832 150.567761 
L 383.01025 159.314704 
L 385.267524 176.736308 
L 387.042205 189.794994 
L 388.173747 196.724018 
L 389.145305 201.370611 
L 389.956002 204.148597 
L 390.605089 205.58089 
L 391.092103 206.170853 
L 391.416828 206.328515 
L 391.741561 206.296185 
L 392.066277 206.073782 
L 392.55326 205.386212 
L 393.040062 204.281125 
L 393.688719 202.181258 
L 394.498687 198.614845 
L 395.469194 193.115609 
L 396.599468 185.359161 
L 397.889249 175.355574 
L 397.889249 175.355574 
" style="fill:none;stroke:#2ca02c;stroke-linecap:square;stroke-width:1.5;"/>
   </g>
   <g id="line2d_30">
    <path clip-path="url(#p6a4f4617f1)" d="M 73.832727 153.451454 
L 74.157451 153.604309 
L 74.482106 154.061389 
L 74.968824 155.304564 
L 75.455059 157.183615 
L 76.102409 160.579597 
L 77.071252 167.197277 
L 79.004721 182.843682 
L 80.134233 191.046903 
L 80.943149 195.498692 
L 81.591546 197.901258 
L 82.078381 198.929845 
L 82.403081 199.225403 
L 82.727812 199.202072 
L 83.052501 198.859076 
L 83.377074 198.200134 
L 83.863574 196.638362 
L 84.511298 193.562008 
L 85.319154 188.358092 
L 86.447202 179.339054 
L 88.702377 160.836715 
L 89.510659 155.923401 
L 90.158716 153.160762 
L 90.645409 151.880739 
L 90.970067 151.430968 
L 91.294793 151.313432 
L 91.619507 151.530944 
L 91.944128 152.081595 
L 92.430719 153.516484 
L 93.078547 156.495902 
L 93.886396 161.701312 
L 95.014001 170.947674 
L 97.428393 191.705759 
L 98.236405 196.801978 
L 98.884375 199.647268 
L 99.371054 200.948286 
L 99.695713 201.391871 
L 100.020441 201.487047 
L 100.345148 201.231252 
L 100.669746 200.626891 
L 101.156257 199.08417 
L 101.803872 195.915586 
L 102.611257 190.416015 
L 103.737917 180.696011 
L 106.15037 159.013224 
L 106.958095 153.730649 
L 107.605976 150.803752 
L 108.092642 149.484788 
L 108.417304 149.050471 
L 108.742033 148.981537 
L 109.066731 149.280241 
L 109.391301 149.943613 
L 109.877721 151.603204 
L 110.525091 154.974541 
L 111.331956 160.786575 
L 112.457569 171.005439 
L 114.867913 193.649234 
L 115.675336 199.121084 
L 116.323128 202.127846 
L 116.809784 203.461038 
L 117.134449 203.882498 
L 117.459179 203.920766 
L 117.783865 203.573956 
L 118.108402 202.84568 
L 118.594715 201.059273 
L 119.241806 197.470412 
L 120.048085 191.326276 
L 121.172538 180.581927 
L 123.419531 158.275315 
L 124.226039 152.260749 
L 124.873331 148.830115 
L 125.359773 147.200826 
L 125.68437 146.597794 
L 126.009084 146.393756 
L 126.3338 146.59304 
L 126.658398 147.194195 
L 127.144832 148.832106 
L 127.630428 151.308761 
L 128.276213 155.783539 
L 129.241106 164.496174 
L 131.163602 185.073067 
L 132.287935 195.862002 
L 133.094709 201.718339 
L 133.742325 204.87613 
L 134.228968 206.223385 
L 134.553644 206.605958 
L 134.878373 206.567054 
L 135.203025 206.105756 
L 135.527473 205.227235 
L 136.013512 203.153207 
L 136.659919 199.079632 
L 137.464799 192.206477 
L 138.586538 180.325321 
L 140.828564 156.013479 
L 141.634279 149.570111 
L 142.28133 145.958032 
L 142.767742 144.296163 
L 143.092351 143.722152 
L 143.417073 143.587622 
L 143.741767 143.896074 
L 144.066292 144.644592 
L 144.552473 146.570453 
L 145.199028 150.540555 
L 146.003844 157.441554 
L 147.124754 169.644142 
L 149.523731 196.900134 
L 150.329024 203.559486 
L 150.975959 207.255615 
L 151.462364 208.924154 
L 151.786981 209.475154 
L 152.111707 209.564888 
L 152.436384 209.190412 
L 152.760858 208.355556 
L 153.246877 206.2649 
L 153.893011 202.01797 
L 154.696956 194.702166 
L 155.81616 181.855718 
L 158.211845 153.413876 
L 159.016703 146.539214 
L 159.663527 142.765439 
L 160.149932 141.098398 
L 160.47456 140.577351 
L 160.799287 140.540448 
L 161.123941 140.989951 
L 161.448353 141.920975 
L 161.934178 144.192367 
L 162.579827 148.738689 
L 163.382784 156.497642 
L 164.50009 170.023551 
L 166.731903 198.018057 
L 167.535369 205.548784 
L 168.181443 209.829948 
L 168.667531 211.847916 
L 168.992061 212.582117 
L 169.316769 212.811697 
L 169.479131 212.735335 
L 169.803753 212.200589 
L 170.128087 211.162352 
L 170.613681 208.692508 
L 171.258767 203.822056 
L 172.060604 195.589396 
L 173.175797 181.346534 
L 175.403917 152.146168 
L 176.206843 144.379033 
L 176.852778 140.013824 
L 177.338867 137.999339 
L 177.663414 137.299753 
L 177.98813 137.130309 
L 178.312807 137.495439 
L 178.637241 138.391599 
L 179.123014 140.70436 
L 179.768267 145.476714 
L 180.569945 153.769884 
L 181.683874 168.419551 
L 184.066599 201.126654 
L 184.868977 209.125518 
L 185.514788 213.563555 
L 186.00089 215.561929 
L 186.325459 216.216646 
L 186.487815 216.335557 
L 186.65018 216.314395 
L 186.974828 215.851696 
L 187.299175 214.833509 
L 187.784681 212.295981 
L 188.429265 207.158456 
L 189.229596 198.334729 
L 190.340971 182.887781 
L 192.719028 148.791051 
L 193.520859 140.567853 
L 194.166567 136.071048 
L 194.652696 134.103849 
L 194.97729 133.505983 
L 195.139651 133.426125 
L 195.302014 133.493262 
L 195.626618 134.067997 
L 195.950855 135.223568 
L 196.436035 138.009977 
L 197.079835 143.545395 
L 197.878627 152.938603 
L 198.98715 169.227939 
L 201.200759 202.754635 
L 202.000683 211.727618 
L 202.645385 216.796046 
L 203.1311 219.152791 
L 203.455572 219.983897 
L 203.780278 220.204278 
L 203.942633 220.083322 
L 204.267176 219.380047 
L 204.591273 218.069744 
L 205.076057 215.007523 
L 205.718934 209.038224 
L 206.515962 199.033573 
L 207.621302 181.854704 
L 209.829732 146.930603 
L 210.62901 137.722343 
L 211.273607 132.60196 
L 211.759371 130.291101 
L 212.083882 129.531176 
L 212.246234 129.391595 
L 212.408599 129.413593 
L 212.733219 129.942537 
L 213.057443 131.112141 
L 213.542432 134.030664 
L 214.185431 139.939392 
L 214.982044 150.077652 
L 216.085339 167.797728 
L 218.445104 206.872341 
L 219.243763 216.299474 
L 219.888297 221.448006 
L 220.374133 223.689351 
L 220.69869 224.359956 
L 220.861051 224.442332 
L 221.023411 224.355021 
L 221.347962 223.672131 
L 221.672015 222.319545 
L 222.156517 219.078657 
L 222.798375 212.66926 
L 223.592812 201.835032 
L 224.692206 183.118691 
L 226.886994 144.739914 
L 227.683272 134.497823 
L 228.326575 128.737901 
L 228.811919 126.087038 
L 229.136336 125.175428 
L 229.298675 124.983722 
L 229.46104 124.969775 
L 229.623386 125.133975 
L 229.947835 125.994795 
L 230.271666 127.555086 
L 230.755562 131.155795 
L 231.39606 138.114188 
L 232.187985 149.698022 
L 233.283015 169.466147 
L 235.313251 206.939596 
L 236.106866 218.019072 
L 236.748753 224.409771 
L 237.233501 227.484639 
L 237.557727 228.646454 
L 237.882379 229.071238 
L 238.044741 229.003757 
L 238.369283 228.308666 
L 238.693251 226.875062 
L 239.177337 223.387515 
L 239.817835 216.43381 
L 240.60897 204.629546 
L 241.701036 184.185914 
L 243.879592 142.091304 
L 244.672422 130.7825 
L 245.314285 124.387515 
L 245.799186 121.419996 
L 246.123509 120.382088 
L 246.285836 120.153861 
L 246.448201 120.121464 
L 246.610546 120.285403 
L 246.934957 121.200256 
L 247.258636 122.886311 
L 247.741938 126.80434 
L 248.380693 134.403082 
L 249.168657 147.070687 
L 250.255322 168.696827 
L 252.269024 209.756254 
L 253.058783 221.93765 
L 253.699033 228.980233 
L 254.183264 232.375946 
L 254.507375 233.662253 
L 254.832007 234.136271 
L 254.994368 234.064677 
L 255.318871 233.30382 
L 255.642681 231.728864 
L 256.126134 227.894072 
L 256.764747 220.250401 
L 257.551566 207.291333 
L 258.634475 184.88901 
L 260.793804 138.814621 
L 261.582797 126.432008 
L 262.223154 119.437656 
L 262.707643 116.206134 
L 263.031901 115.089308 
L 263.194224 114.851788 
L 263.356588 114.830411 
L 263.518925 115.02569 
L 263.843244 116.063609 
L 264.166656 117.951143 
L 264.649054 122.309204 
L 265.285373 130.720103 
L 266.068121 144.681205 
L 267.144303 168.4153 
L 269.138491 213.302743 
L 269.92402 226.581274 
L 270.56261 234.224373 
L 271.046392 237.872921 
L 271.370436 239.224494 
L 271.69507 239.678078 
L 271.857425 239.563925 
L 272.181833 238.654005 
L 272.505351 236.847205 
L 272.987807 232.520026 
L 273.62372 223.985908 
L 274.404759 209.631574 
L 275.476082 184.991633 
L 277.612812 134.687506 
L 278.397728 121.26507 
L 279.036668 113.754402 
L 279.520869 110.354919 
L 279.845122 109.238611 
L 280.007455 109.035794 
L 280.169818 109.072065 
L 280.332127 109.347737 
L 280.65625 110.613165 
L 280.979189 112.813278 
L 281.460166 117.785345 
L 282.092978 127.241371 
L 282.868704 142.765046 
L 284.082199 172.847839 
L 285.748825 214.525398 
L 286.526501 229.62682 
L 287.161046 238.574185 
L 287.64317 243.048671 
L 287.966681 244.856982 
L 288.291138 245.68079 
L 288.453501 245.716842 
L 288.61583 245.501044 
L 288.940023 244.316996 
L 289.263006 242.146295 
L 289.743844 237.121795 
L 290.375779 227.426325 
L 291.148906 211.369486 
L 292.205418 184.16377 
L 294.162061 132.790502 
L 294.93914 117.569001 
L 295.574304 108.817793 
L 296.057102 104.668006 
L 296.380972 103.158295 
L 296.705594 102.69428 
L 296.867937 102.859266 
L 297.192178 103.982036 
L 297.515169 106.145779 
L 297.995773 111.259756 
L 298.62661 121.247226 
L 299.396713 137.901171 
L 300.446072 166.247852 
L 302.386712 220.123746 
L 303.15949 236.239907 
L 303.792618 245.588753 
L 304.274672 250.084373 
L 304.59834 251.765037 
L 304.922913 252.347119 
L 305.085264 252.220379 
L 305.409529 251.131513 
L 305.732479 248.944809 
L 306.21272 243.693142 
L 306.842165 233.347205 
L 307.608704 216.017915 
L 308.649989 186.444307 
L 310.725105 126.264687 
L 311.49799 110.182299 
L 312.132393 101.217568 
L 312.615473 97.222842 
L 312.939596 95.971933 
L 313.101932 95.783384 
L 313.264286 95.888695 
L 313.588545 96.979794 
L 313.911391 99.22832 
L 314.391094 104.679096 
L 315.018759 115.466058 
L 315.781048 133.564923 
L 316.81315 164.464726 
L 318.868363 227.454489 
L 319.637053 244.358915 
L 320.269761 253.808779 
L 320.752367 258.03193 
L 321.076412 259.360782 
L 321.238743 259.564753 
L 321.401097 259.458903 
L 321.563332 259.043107 
L 321.886898 257.289276 
L 322.368065 252.422284 
L 322.84168 245.058136 
L 323.458419 231.870915 
L 324.351611 206.648879 
L 327.574119 107.157504 
L 328.201182 96.234787 
L 328.681281 90.943712 
L 329.004512 88.948721 
L 329.329011 88.238792 
L 329.491359 88.373412 
L 329.815473 89.62182 
L 330.13781 92.155224 
L 330.615637 98.253071 
L 331.238051 110.245622 
L 331.989003 130.237381 
L 332.998501 164.140256 
L 334.86082 228.615452 
L 335.61509 248.065948 
L 336.24044 259.387712 
L 336.720166 264.812963 
L 337.043391 266.808486 
L 337.36792 267.44477 
L 337.530251 267.24555 
L 337.854181 265.814062 
L 338.176022 263.029978 
L 338.652302 256.445359 
L 339.270868 243.644848 
L 340.014229 222.492279 
L 341.009765 186.88925 
L 342.848703 119.657617 
L 343.59857 99.509269 
L 344.222578 87.888678 
L 344.702193 82.429904 
L 345.025522 80.51216 
L 345.187752 80.091671 
L 345.350109 80.035258 
L 345.512399 80.344125 
L 345.836005 82.051657 
L 346.157088 85.181013 
L 346.631201 92.391546 
L 347.244757 106.168475 
L 347.978813 128.649059 
L 349.09558 171.720867 
L 350.627575 231.312077 
L 351.366116 253.155891 
L 351.983723 266.137442 
L 352.460527 272.547819 
L 352.782928 275.036604 
L 353.107242 276.015316 
L 353.269594 275.927057 
L 353.431788 275.452388 
L 353.754843 273.354279 
L 354.233129 267.434493 
L 354.700026 258.453199 
L 355.300547 242.430599 
L 356.154697 212.048582 
L 359.065307 97.216156 
L 359.676073 82.936523 
L 360.1498 75.630164 
L 360.471121 72.611787 
L 360.795024 71.17655 
L 360.957373 71.068343 
L 361.119664 71.369639 
L 361.443102 73.194265 
L 361.763475 76.611167 
L 362.23481 84.541971 
L 362.840444 99.713713 
L 363.557467 124.396465 
L 364.635383 171.456449 
L 366.113595 236.518152 
L 366.836343 260.476507 
L 367.447172 274.731501 
L 367.921957 281.731053 
L 368.244001 284.398508 
L 368.568302 285.368412 
L 368.730638 285.203745 
L 368.892732 284.604987 
L 369.215119 282.120321 
L 369.690523 275.306319 
L 370.151506 265.124134 
L 370.738943 247.178312 
L 371.564083 213.588845 
L 374.371734 88.578512 
L 374.976304 73.244705 
L 375.44861 65.576471 
L 375.769919 62.562113 
L 376.094008 61.341731 
L 376.256358 61.42065 
L 376.418499 61.961041 
L 376.740935 64.411843 
L 377.059013 68.632681 
L 377.523843 78.036069 
L 378.114645 95.493428 
L 378.804696 123.228154 
L 379.830164 175.004453 
L 381.248401 245.439558 
L 381.95778 271.007167 
L 382.565096 285.85546 
L 383.040147 292.754229 
L 383.362826 295.059291 
L 383.525045 295.488 
L 383.687395 295.426467 
L 383.849525 294.873746 
L 384.17174 292.31057 
L 384.489087 287.867278 
L 384.951366 277.953846 
L 385.535472 259.577306 
L 386.212114 230.486 
L 387.208978 176.404501 
L 387.208978 176.404501 
" style="fill:none;stroke:#d62728;stroke-linecap:square;stroke-width:1.5;"/>
   </g>
   <g id="patch_3">
    <path d="M 57.6 307.584 
L 57.6 41.472 
" style="fill:none;stroke:#000000;stroke-linecap:square;stroke-linejoin:miter;stroke-width:0.8;"/>
   </g>
   <g id="patch_4">
    <path d="M 414.72 307.584 
L 414.72 41.472 
" style="fill:none;stroke:#000000;stroke-linecap:square;stroke-linejoin:miter;stroke-width:0.8;"/>
   </g>
   <g id="patch_5">
    <path d="M 57.6 307.584 
L 414.72 307.584 
" style="fill:none;stroke:#000000;stroke-linecap:square;stroke-linejoin:miter;stroke-width:0.8;"/>
   </g>
   <g id="patch_6">
    <path d="M 57.6 41.472 
L 414.72 41.472 
" style="fill:none;stroke:#000000;stroke-linecap:square;stroke-linejoin:miter;stroke-width:0.8;"/>
   </g>
   <g id="legend_1">
    <g id="patch_7">
     <path d="M 64.6 302.584 
L 145 302.584 
Q 147 302.584 147 300.584 
L 147 238.79025 
Q 147 236.79025 145 236.79025 
L 64.6 236.79025 
Q 62.6 236.79025 62.6 238.79025 
L 62.6 300.584 
Q 62.6 302.584 64.6 302.584 
z
" style="fill:#ffffff;opacity:0.8;stroke:#cccccc;stroke-linejoin:miter;"/>
    </g>
    <g id="line2d_31">
     <path d="M 66.6 244.888687 
L 86.6 244.888687 
" style="fill:none;stroke:#1f77b4;stroke-linecap:square;stroke-width:1.5;"/>
    </g>
    <g id="line2d_32"/>
    <g id="text_16">
     <!-- K$_p$ = 0.02 -->
     <g transform="translate(94.6 248.388687)scale(0.1 -0.1)">
      <defs>
       <path d="M 9.8125 72.90625 
L 19.671875 72.90625 
L 19.671875 42.09375 
L 52.390625 72.90625 
L 65.09375 72.90625 
L 28.90625 38.921875 
L 67.671875 0 
L 54.6875 0 
L 19.671875 35.109375 
L 19.671875 0 
L 9.8125 0 
z
" id="DejaVuSans-75"/>
       <path d="M 49.609375 33.6875 
Q 49.609375 40.875 46.484375 44.671875 
Q 43.359375 48.484375 37.5 48.484375 
Q 33.5 48.484375 29.859375 46.4375 
Q 26.21875 44.390625 23.390625 40.484375 
Q 20.609375 36.625 18.9375 31.15625 
Q 17.28125 25.6875 17.28125 20.3125 
Q 17.28125 13.484375 20.40625 9.796875 
Q 23.53125 6.109375 29.296875 6.109375 
Q 33.546875 6.109375 37.1875 8.109375 
Q 40.828125 10.109375 43.40625 13.921875 
Q 46.1875 17.921875 47.890625 23.34375 
Q 49.609375 28.765625 49.609375 33.6875 
z
M 21.78125 46.390625 
Q 25.390625 51.125 30.296875 53.5625 
Q 35.203125 56 41.21875 56 
Q 49.609375 56 54.25 50.5 
Q 58.890625 45.015625 58.890625 35.109375 
Q 58.890625 27 56 19.65625 
Q 53.125 12.3125 47.703125 6.5 
Q 44.09375 2.640625 39.546875 0.609375 
Q 35.015625 -1.421875 29.984375 -1.421875 
Q 24.171875 -1.421875 20.21875 1 
Q 16.265625 3.421875 14.3125 8.203125 
L 8.6875 -20.796875 
L -0.296875 -20.796875 
L 14.40625 54.6875 
L 23.390625 54.6875 
z
" id="DejaVuSans-Oblique-112"/>
       <path d="M 10.59375 45.40625 
L 73.1875 45.40625 
L 73.1875 37.203125 
L 10.59375 37.203125 
z
M 10.59375 25.484375 
L 73.1875 25.484375 
L 73.1875 17.1875 
L 10.59375 17.1875 
z
" id="DejaVuSans-61"/>
      </defs>
      <use transform="translate(0 0.78125)" xlink:href="#DejaVuSans-75"/>
      <use transform="translate(66.533203 -15.625)scale(0.7)" xlink:href="#DejaVuSans-Oblique-112"/>
      <use transform="translate(113.701172 0.78125)" xlink:href="#DejaVuSans-32"/>
      <use transform="translate(145.488281 0.78125)" xlink:href="#DejaVuSans-61"/>
      <use transform="translate(229.277344 0.78125)" xlink:href="#DejaVuSans-32"/>
      <use transform="translate(261.064453 0.78125)" xlink:href="#DejaVuSans-48"/>
      <use transform="translate(324.6875 0.78125)" xlink:href="#DejaVuSans-46"/>
      <use transform="translate(356.474609 0.78125)" xlink:href="#DejaVuSans-48"/>
      <use transform="translate(420.097656 0.78125)" xlink:href="#DejaVuSans-50"/>
     </g>
    </g>
    <g id="line2d_33">
     <path d="M 66.6 260.587125 
L 86.6 260.587125 
" style="fill:none;stroke:#ff7f0e;stroke-linecap:square;stroke-width:1.5;"/>
    </g>
    <g id="line2d_34"/>
    <g id="text_17">
     <!-- K$_p$ = 0.1 -->
     <g transform="translate(94.6 264.087125)scale(0.1 -0.1)">
      <use transform="translate(0 0.78125)" xlink:href="#DejaVuSans-75"/>
      <use transform="translate(66.533203 -15.625)scale(0.7)" xlink:href="#DejaVuSans-Oblique-112"/>
      <use transform="translate(113.701172 0.78125)" xlink:href="#DejaVuSans-32"/>
      <use transform="translate(145.488281 0.78125)" xlink:href="#DejaVuSans-61"/>
      <use transform="translate(229.277344 0.78125)" xlink:href="#DejaVuSans-32"/>
      <use transform="translate(261.064453 0.78125)" xlink:href="#DejaVuSans-48"/>
      <use transform="translate(324.6875 0.78125)" xlink:href="#DejaVuSans-46"/>
      <use transform="translate(356.474609 0.78125)" xlink:href="#DejaVuSans-49"/>
     </g>
    </g>
    <g id="line2d_35">
     <path d="M 66.6 276.285562 
L 86.6 276.285562 
" style="fill:none;stroke:#2ca02c;stroke-linecap:square;stroke-width:1.5;"/>
    </g>
    <g id="line2d_36"/>
    <g id="text_18">
     <!-- K$_p$ = 0.2 -->
     <g transform="translate(94.6 279.785562)scale(0.1 -0.1)">
      <use transform="translate(0 0.78125)" xlink:href="#DejaVuSans-75"/>
      <use transform="translate(66.533203 -15.625)scale(0.7)" xlink:href="#DejaVuSans-Oblique-112"/>
      <use transform="translate(113.701172 0.78125)" xlink:href="#DejaVuSans-32"/>
      <use transform="translate(145.488281 0.78125)" xlink:href="#DejaVuSans-61"/>
      <use transform="translate(229.277344 0.78125)" xlink:href="#DejaVuSans-32"/>
      <use transform="translate(261.064453 0.78125)" xlink:href="#DejaVuSans-48"/>
      <use transform="translate(324.6875 0.78125)" xlink:href="#DejaVuSans-46"/>
      <use transform="translate(350.974609 0.78125)" xlink:href="#DejaVuSans-50"/>
     </g>
    </g>
    <g id="line2d_37">
     <path d="M 66.6 291.984 
L 86.6 291.984 
" style="fill:none;stroke:#d62728;stroke-linecap:square;stroke-width:1.5;"/>
    </g>
    <g id="line2d_38"/>
    <g id="text_19">
     <!-- K$_p$ = 0.5 -->
     <g transform="translate(94.6 295.484)scale(0.1 -0.1)">
      <use transform="translate(0 0.78125)" xlink:href="#DejaVuSans-75"/>
      <use transform="translate(66.533203 -15.625)scale(0.7)" xlink:href="#DejaVuSans-Oblique-112"/>
      <use transform="translate(113.701172 0.78125)" xlink:href="#DejaVuSans-32"/>
      <use transform="translate(145.488281 0.78125)" xlink:href="#DejaVuSans-61"/>
      <use transform="translate(229.277344 0.78125)" xlink:href="#DejaVuSans-32"/>
      <use transform="translate(261.064453 0.78125)" xlink:href="#DejaVuSans-48"/>
      <use transform="translate(324.6875 0.78125)" xlink:href="#DejaVuSans-46"/>
      <use transform="translate(356.474609 0.78125)" xlink:href="#DejaVuSans-53"/>
     </g>
    </g>
   </g>
  </g>
 </g>
 <defs>
  <clipPath id="p6a4f4617f1">
   <rect height="266.112" width="357.12" x="57.6" y="41.472"/>
  </clipPath>
 </defs>
</svg>
